<svg width="123" height="125" viewBox="0 0 123 125" fill="none" xmlns="http://www.w3.org/2000/svg">
<path d="M71.8468 45.8348C74.424 43.2264 76.012 39.6432 76.012 35.6648C76.012 31.6864 74.424 28.1032 71.8468 25.4948C69.2697 22.8865 65.7293 21.2793 61.7985 21.2793C57.8676 21.2793 54.3273 22.8865 51.7501 25.4948C49.1729 28.1032 47.585 31.6864 47.585 35.6648C47.585 39.6432 49.1729 43.2264 51.7501 45.8348C54.3273 48.4432 57.8676 50.0503 61.7985 50.0503C65.7293 50.0503 69.2697 48.4432 71.8468 45.8348ZM66.5363 30.8696C67.7338 32.108 68.4887 33.7942 68.4887 35.6648C68.4887 37.5355 67.7338 39.2217 66.5363 40.46C65.3128 41.6983 63.6467 42.4624 61.7985 42.4624C59.9502 42.4624 58.2841 41.6983 57.0606 40.4863C55.8371 39.248 55.0822 37.5618 55.0822 35.6912C55.0822 33.8205 55.8371 32.1343 57.0346 30.896C58.2581 29.6577 59.9242 28.8936 61.7724 28.8936C63.6207 28.8936 65.3128 29.6577 66.5103 30.8696H66.5363Z" fill="#FF002C"/>
<path d="M82.2082 55.2134L81.9479 55.6086C77.0539 63.381 73.5135 69.1247 70.5719 74.157C67.6563 79.1366 65.3915 83.3521 63.0746 87.9892L61.773 90.6239L60.4454 88.0156C56.3844 79.927 52.9482 73.4193 49.6421 67.7283C46.336 62.0373 43.1341 57.1368 39.5156 52.1835C37.381 49.259 35.8451 45.9656 34.9861 42.4614C34.127 39.0099 33.9448 35.374 34.4394 31.6591C35.2724 25.4939 38.2401 19.9083 42.5093 15.6927C46.7786 11.4772 52.3755 8.63172 58.493 7.92035C59.5863 7.78861 60.6797 7.73592 61.721 7.73592C68.7757 7.73592 75.2316 10.4233 80.1517 14.8496C85.0457 19.276 88.4038 25.4675 89.1848 32.4759C89.3149 33.5561 89.367 34.61 89.367 35.6902C89.367 38.3249 89.0026 40.9333 88.2737 43.4363C87.5708 45.9392 86.5035 48.3368 85.0978 50.55L82.1561 55.2398L82.2082 55.2134ZM95.5366 45.544C96.4477 42.3824 96.9163 39.089 96.9163 35.6902C96.9163 34.2938 96.8382 32.9238 96.682 31.6064C95.6928 22.6747 91.4235 14.8233 85.2019 9.18501C78.9802 3.54673 70.7541 0.147949 61.773 0.147949C60.3933 0.147949 59.0397 0.226991 57.686 0.385073C49.8764 1.28088 42.7436 4.91678 37.3029 10.2652C31.8622 15.6401 28.1136 22.7538 27.0203 30.6316C26.3695 35.3213 26.6298 39.9584 27.7231 44.3584C28.8165 48.7847 30.7689 52.9739 33.4762 56.7152C37.3029 61.9583 40.6611 67.2013 44.2535 73.4983C47.8199 79.7953 51.6205 87.1198 56.2803 96.5784L58.4149 100.873C58.8054 101.663 59.4041 102.243 60.081 102.586C60.6016 102.849 61.2003 102.981 61.7991 102.981C62.3978 102.981 62.9705 102.849 63.5172 102.586C64.194 102.243 64.7928 101.69 65.1832 100.899L69.6868 91.7832C71.9776 87.1461 74.1903 83.036 77.0539 78.1354C79.8913 73.2875 83.4057 67.5966 88.3257 59.7715L91.5277 54.6601C93.2979 51.841 94.6515 48.7847 95.5626 45.5967L95.5366 45.544Z" fill="#FF002C"/>
<path d="M92.2822 85.0906C99.1026 86.7241 104.595 88.8583 108.448 91.0451C113.056 93.6534 115.529 96.5516 115.529 99.1073C115.529 103.639 108.76 108.329 97.8791 111.622C88.4294 114.494 75.7518 116.47 61.7726 116.47C47.7934 116.47 35.1158 114.494 25.6662 111.622C14.7848 108.329 8.01643 103.613 8.01643 99.1073C8.01643 96.5516 10.4895 93.6534 15.0971 91.0451C18.9499 88.8319 24.4427 86.7241 31.2631 85.0906C32.2783 84.8535 33.0853 84.2212 33.6059 83.3781C34.1005 82.5613 34.3088 81.5338 34.0485 80.5062C33.8142 79.4787 33.1894 78.6619 32.3564 78.135C31.5494 77.6344 30.5342 77.4236 29.5189 77.6871C20.2775 79.9002 12.7803 82.9829 7.67801 86.8559C3.07034 90.3337 0.493164 94.4702 0.493164 99.1336C0.493164 106.3 6.84498 112.307 17.1797 116.681C28.4256 121.423 44.253 124.111 61.7466 124.111C79.2401 124.111 95.0676 121.423 106.313 116.681C116.622 112.334 123 106.3 123 99.1336C123 94.4702 120.423 90.36 115.815 86.8559C110.713 82.9829 103.19 79.9002 93.9482 77.6871C92.933 77.45 91.9177 77.6344 91.1107 78.135C90.3037 78.6356 89.679 79.4787 89.4187 80.5062C89.1844 81.5338 89.3666 82.5613 89.8612 83.3781C90.3558 84.1948 91.1888 84.8535 92.2041 85.0906H92.2822Z" fill="#FF002C"/>
</svg>
