<svg width="190" height="738" viewBox="0 0 190 738" fill="none" xmlns="http://www.w3.org/2000/svg">
<path d="M135.342 85.0061C136.41 85.0061 137.275 84.1406 137.275 83.073V64.3262C137.275 63.2586 136.41 62.3931 135.342 62.3931H131.437C130.369 62.3931 129.503 63.2586 129.503 64.3262C129.503 65.3938 130.369 66.2593 131.437 66.2593H133.409V83.073C133.409 84.1406 134.274 85.0061 135.342 85.0061Z" fill="#FF002C"/>
<path d="M85.611 85.0061C86.6787 85.0061 87.5442 84.1406 87.5442 83.073V64.3262C87.5442 63.2586 86.6787 62.3931 85.611 62.3931H81.7056C80.638 62.3931 79.7725 63.2586 79.7725 64.3262C79.7725 65.3938 80.638 66.2593 81.7056 66.2593H83.6779V83.073C83.6779 84.1406 84.5434 85.0061 85.611 85.0061Z" fill="#FF002C"/>
<path d="M125.039 69.5344C125.039 65.5964 121.835 62.3926 117.897 62.3926C113.959 62.3926 110.756 65.5964 110.756 69.5344V77.8641C110.756 81.802 113.959 85.0059 117.897 85.0059C121.835 85.0059 125.039 81.802 125.039 77.8641V69.5344ZM121.173 77.8641C121.173 79.6702 119.703 81.1396 117.897 81.1396C116.091 81.1396 114.622 79.6702 114.622 77.8641V69.5344C114.622 67.7283 116.091 66.2589 117.897 66.2589C119.703 66.2589 121.173 67.7283 121.173 69.5344V77.8641Z" fill="#FF002C"/>
<path d="M99.1506 62.3931C95.2126 62.3931 92.0088 65.5969 92.0088 69.5348V77.8646C92.0088 81.8025 95.2126 85.0064 99.1506 85.0064C103.088 85.0064 106.292 81.8025 106.292 77.8646V69.5348C106.292 65.5967 103.088 62.3931 99.1506 62.3931ZM102.426 77.8643C102.426 79.6704 100.956 81.1399 99.1503 81.1399C97.3442 81.1399 95.8748 79.6704 95.8748 77.8643V69.5346C95.8748 67.7285 97.3442 66.2591 99.1503 66.2591C100.956 66.2591 102.426 67.7285 102.426 69.5346V77.8643Z" fill="#FF002C"/>
<path d="M54.6274 62.3931H50.7217C49.6541 62.3931 48.7886 63.2586 48.7886 64.3262C48.7886 65.3938 49.6541 66.2593 50.7217 66.2593H52.694V83.073C52.694 84.1406 53.5596 85.0061 54.6272 85.0061C55.6948 85.0061 56.5603 84.1406 56.5603 83.073V64.3262C56.5606 63.2586 55.695 62.3931 54.6274 62.3931Z" fill="#FF002C"/>
<path d="M75.308 69.5344C75.308 65.5964 72.1041 62.3926 68.1662 62.3926C64.2283 62.3926 61.0244 65.5964 61.0244 69.5344V77.8641C61.0244 81.802 64.2283 85.0059 68.1662 85.0059C72.1041 85.0059 75.308 81.802 75.308 77.8641V69.5344ZM71.4417 77.8641C71.4417 79.6702 69.9723 81.1396 68.1662 81.1396C66.3601 81.1396 64.8907 79.6702 64.8907 77.8641V69.5344C64.8907 67.7283 66.3601 66.2589 68.1662 66.2589C69.9723 66.2589 71.4417 67.7283 71.4417 69.5344V77.8641Z" fill="#FF002C"/>
<path d="M121.801 112.085C122.869 112.085 123.735 111.219 123.735 110.151V91.4047C123.735 90.3371 122.869 89.4716 121.801 89.4716H117.896C116.828 89.4716 115.963 90.3371 115.963 91.4047C115.963 92.4723 116.828 93.3378 117.896 93.3378H119.868V110.151C119.868 111.219 120.734 112.085 121.801 112.085Z" fill="#FF002C"/>
<path d="M72.0705 112.085C73.1381 112.085 74.0037 111.219 74.0037 110.151V91.4047C74.0037 90.3371 73.1381 89.4716 72.0705 89.4716H68.1651C67.0975 89.4716 66.2319 90.3371 66.2319 91.4047C66.2319 92.4723 67.0975 93.3378 68.1651 93.3378H70.1374V110.151C70.1374 111.219 71.0027 112.085 72.0705 112.085Z" fill="#FF002C"/>
<path d="M104.358 89.4716C100.42 89.4716 97.2158 92.6754 97.2158 96.6133V104.943C97.2158 108.881 100.42 112.085 104.358 112.085C108.296 112.085 111.499 108.881 111.499 104.943V96.6133C111.499 92.6751 108.296 89.4716 104.358 89.4716V89.4716ZM107.633 104.943C107.633 106.749 106.163 108.218 104.357 108.218C102.551 108.218 101.082 106.749 101.082 104.943V96.6131C101.082 94.807 102.551 93.3376 104.357 93.3376C106.163 93.3376 107.633 94.807 107.633 96.6131V104.943Z" fill="#FF002C"/>
<path d="M78.4673 104.943C78.4673 108.881 81.6711 112.085 85.6091 112.085C89.547 112.085 92.7508 108.881 92.7508 104.943V96.613C92.7508 92.675 89.547 89.4712 85.6091 89.4712C81.6711 89.4712 78.4673 92.675 78.4673 96.613V104.943ZM82.3336 96.613C82.3336 94.8069 83.803 93.3375 85.6091 93.3375C87.4151 93.3375 88.8846 94.8069 88.8846 96.613V104.943C88.8846 106.749 87.4151 108.218 85.6091 108.218C83.803 108.218 82.3336 106.749 82.3336 104.943V96.613Z" fill="#FF002C"/>
<path d="M54.6271 89.4716C50.6892 89.4716 47.4854 92.6754 47.4854 96.6133V104.943C47.4854 108.881 50.6892 112.085 54.6271 112.085C58.5651 112.085 61.7689 108.881 61.7689 104.943V96.6133C61.7687 92.6751 58.5651 89.4716 54.6271 89.4716V89.4716ZM57.9024 104.943C57.9024 106.749 56.4329 108.218 54.6269 108.218C52.8208 108.218 51.3514 106.749 51.3514 104.943V96.6131C51.3514 94.807 52.8208 93.3376 54.6269 93.3376C56.4329 93.3376 57.9024 94.807 57.9024 96.6131V104.943Z" fill="#FF002C"/>
<path d="M128.2 104.943C128.2 108.881 131.404 112.085 135.342 112.085C139.28 112.085 142.484 108.881 142.484 104.943V96.613C142.484 92.675 139.28 89.4712 135.342 89.4712C131.404 89.4712 128.2 92.675 128.2 96.613V104.943ZM132.066 96.613C132.066 94.8069 133.536 93.3375 135.342 93.3375C137.148 93.3375 138.617 94.8069 138.617 96.613V104.943C138.617 106.749 137.148 108.218 135.342 108.218C133.536 108.218 132.066 106.749 132.066 104.943V96.613Z" fill="#FF002C"/>
<path d="M47.2518 48.333H39.2666C38.199 48.333 37.3335 49.1985 37.3335 50.2661V124.212C37.3335 125.28 38.199 126.146 39.2666 126.146H150.703C151.771 126.146 152.636 125.28 152.636 124.212V50.2661C152.636 49.1985 151.771 48.333 150.703 48.333H56.2731C55.2055 48.333 54.3399 49.1985 54.3399 50.2661C54.3399 51.3338 55.2055 52.1993 56.2731 52.1993H148.77V122.279H41.1998V52.1993H47.2518C48.3194 52.1993 49.1849 51.3338 49.1849 50.2661C49.1849 49.1985 48.3194 48.333 47.2518 48.333V48.333Z" fill="#1A73E8"/>
<path d="M153.829 40H36.1397C32.2028 40 29 43.2041 29 47.1423V127.337C29 131.273 32.2028 134.476 36.1397 134.476H77.6243L75.6247 147.274H71.0315C69.9639 147.274 69.0984 148.139 69.0984 149.207V157.54C69.0984 158.607 69.9639 159.473 71.0315 159.473H118.937C120.005 159.473 120.87 158.607 120.87 157.54V149.207C120.87 148.139 120.005 147.274 118.937 147.274H114.344L112.344 134.476H132.248C133.315 134.476 134.181 133.611 134.181 132.543C134.181 131.475 133.315 130.61 132.248 130.61H36.1397C34.3347 130.61 32.8663 129.142 32.8663 127.337V47.1423C32.8663 45.336 34.3347 43.8663 36.1397 43.8663H153.829C155.634 43.8663 157.102 45.336 157.102 47.1423V127.337C157.102 129.141 155.634 130.61 153.829 130.61H141.269C140.201 130.61 139.336 131.475 139.336 132.543C139.336 133.611 140.201 134.476 141.269 134.476H153.829C157.766 134.476 160.969 131.273 160.969 127.337V47.1423C160.969 43.2041 157.766 40 153.829 40V40ZM110.431 147.274H107.045C105.977 147.274 105.111 148.139 105.111 149.207C105.111 150.274 105.977 151.14 107.045 151.14H117.004V155.607H72.9647V151.14H98.0233C99.0909 151.14 99.9564 150.274 99.9564 149.207C99.9564 148.139 99.0909 147.274 98.0233 147.274H79.5379L81.5375 134.476H108.431L110.431 147.274Z" fill="#1A73E8"/>
<circle cx="95" cy="95" r="92.5" stroke="white" stroke-width="5"/>
<path d="M151.868 324.634H120.968C121.142 323.771 121.233 322.888 121.233 322C121.233 315.488 116.433 310.01 110.186 308.961C108.838 305.452 105.419 303 101.526 303C98.8966 303 96.5191 304.099 94.8298 305.862C93.1405 304.099 90.763 303 88.1335 303C84.2412 303 80.8221 305.452 79.474 308.961C73.2223 310.009 68.4193 315.488 68.4193 322C68.4193 322.887 68.5108 323.77 68.6869 324.634H37.7915C35.7011 324.634 34.0005 326.334 34.0005 328.425V352.551C34.0005 353.974 35.1547 355.128 36.578 355.128C38.0013 355.128 39.1555 353.974 39.1555 352.551V329.789H65.0374C63.3148 332.186 62.3367 335.112 62.3367 338.226C62.3367 343.266 64.9015 347.818 69.0464 350.426C68.6518 351.661 68.4415 352.953 68.4229 354.256H59.753C59.6839 354.256 59.6277 354.26 59.5779 354.265C58.2366 354.355 57.1754 355.469 57.1754 356.833V366.296C53.5326 367.403 50.8737 370.792 50.8737 374.791C50.8737 379.682 54.857 383.662 59.753 383.662C64.6448 383.662 68.625 379.682 68.625 374.791C68.625 370.793 65.9691 367.404 62.3305 366.297V359.411H69.399C71.1105 363.589 74.9038 366.723 79.4746 367.485C80.8229 370.993 84.2417 373.444 88.1332 373.444C90.7628 373.444 93.1405 372.344 94.8296 370.582C96.5189 372.344 98.8964 373.444 101.526 373.444C105.418 373.444 108.836 370.993 110.185 367.485C114.752 366.723 118.543 363.588 120.253 359.411H127.329V366.297C123.69 367.405 121.034 370.793 121.034 374.791C121.034 379.682 125.014 383.662 129.906 383.662C134.802 383.662 138.785 379.682 138.785 374.791C138.785 370.792 136.127 367.403 132.484 366.296V356.833C132.484 355.41 131.33 354.256 129.906 354.256H121.229C121.21 352.95 121.002 351.658 120.61 350.426C124.757 347.817 127.323 343.264 127.323 338.226C127.323 335.113 126.344 332.187 124.62 329.789H150.504V389.631H39.1555V375.705C39.1555 374.282 38.0013 373.127 36.578 373.127C35.1547 373.127 34.0005 374.282 34.0005 375.705V403.361C34.0005 405.451 35.7011 407.152 37.7915 407.152H75.2137L71.8554 418.237H66.4862C61.8724 418.237 58.1186 421.99 58.1186 426.603V432.391C58.1186 433.815 59.2728 434.969 60.6961 434.969H128.963C130.387 434.969 131.541 433.815 131.541 432.391V426.603C131.541 421.99 127.787 418.237 123.173 418.237H117.804L114.446 407.152H151.868C153.958 407.152 155.659 405.451 155.659 403.361V328.425C155.659 326.334 153.959 324.634 151.868 324.634ZM63.47 374.791C63.47 376.84 61.8026 378.506 59.753 378.506C57.6992 378.506 56.0287 376.84 56.0287 374.791C56.0287 372.738 57.6992 371.069 59.753 371.069C61.8026 371.069 63.47 372.738 63.47 374.791ZM92.2523 364.179C92.2523 366.445 90.4045 368.289 88.1335 368.289C86.0856 368.289 84.3327 366.762 84.0563 364.736C83.8836 363.472 82.8111 362.524 81.535 362.508C77.1458 362.453 73.5746 358.835 73.5746 354.444C73.5746 353.063 73.9324 351.699 74.6092 350.499C74.9745 349.851 75.0425 349.078 74.7956 348.377C74.5487 347.676 74.011 347.115 73.3207 346.839C69.78 345.424 67.4922 342.043 67.4922 338.226C67.4922 334.42 69.7607 331.051 73.2743 329.625C74.1896 329.317 75.1544 329.16 76.1441 329.16C78.375 329.16 80.52 329.979 82.1838 331.465C82.6753 331.904 83.2888 332.12 83.8999 332.12C84.6084 332.12 85.3139 331.83 85.8232 331.26C86.7715 330.198 86.6797 328.569 85.6181 327.62C83.0081 325.289 79.6434 324.005 76.1441 324.005C75.3804 324.005 74.625 324.067 73.8813 324.186C73.6813 323.477 73.5749 322.741 73.5749 322C73.5749 317.614 77.1471 313.997 81.5384 313.936C82.8135 313.919 83.8844 312.971 84.0569 311.708C84.3324 309.682 86.0854 308.155 88.1335 308.155C90.4048 308.155 92.2523 309.999 92.2523 312.265V364.179ZM133.631 374.791C133.631 376.84 131.96 378.506 129.907 378.506C127.857 378.506 126.19 376.84 126.19 374.791C126.19 372.738 127.857 371.069 129.907 371.069C131.96 371.069 133.631 372.738 133.631 374.791ZM116.338 346.84C115.648 347.116 115.111 347.676 114.864 348.377C114.618 349.079 114.686 349.852 115.051 350.499C115.723 351.69 116.078 353.054 116.078 354.444C116.078 358.835 112.51 362.453 108.125 362.508C106.849 362.524 105.776 363.472 105.604 364.736C105.327 366.762 103.574 368.289 101.526 368.289C99.2552 368.289 97.4076 366.445 97.4076 364.179V312.265C97.4074 309.999 99.2552 308.155 101.526 308.155C103.574 308.155 105.327 309.682 105.603 311.707C105.776 312.971 106.846 313.918 108.122 313.936C112.509 313.996 116.078 317.614 116.078 322C116.078 322.743 115.973 323.479 115.776 324.185C115.033 324.066 114.278 324.005 113.516 324.005C110.017 324.005 106.652 325.289 104.042 327.62C102.98 328.569 102.889 330.198 103.837 331.26C104.346 331.83 105.052 332.12 105.76 332.12C106.371 332.12 106.985 331.904 107.476 331.465C109.14 329.978 111.285 329.16 113.516 329.16C114.506 329.16 115.47 329.317 116.385 329.625C119.899 331.054 122.168 334.423 122.168 338.225C122.168 342.041 119.88 345.422 116.338 346.84ZM115.872 423.392C115.878 423.392 115.885 423.393 115.891 423.393C115.898 423.393 115.905 423.392 115.912 423.392H123.173C124.945 423.392 126.386 424.832 126.386 426.603V429.814H63.2736V426.603C63.2736 424.832 64.7147 423.392 66.4862 423.392H73.7481C73.755 423.392 73.7617 423.393 73.7687 423.393C73.7749 423.393 73.7811 423.392 73.7875 423.392H115.872ZM77.2417 418.237L80.5999 407.152H109.06L112.418 418.237H77.2417ZM150.504 401.997H111.006C110.994 401.996 110.984 401.997 110.973 401.997H78.6825C78.674 401.997 78.6657 401.997 78.6572 401.997H39.1555V394.785H150.504V401.997Z" fill="#1A73E8"/>
<path d="M111.832 337.254C108.815 338.423 106.435 340.697 105.129 343.659C103.823 346.62 103.749 349.912 104.921 352.928C105.317 353.949 106.292 354.573 107.324 354.573C107.634 354.573 107.95 354.517 108.257 354.398C109.584 353.882 110.241 352.388 109.726 351.062C109.053 349.33 109.095 347.44 109.846 345.739C110.595 344.038 111.962 342.732 113.694 342.062C115.021 341.547 115.68 340.055 115.166 338.727C114.652 337.399 113.159 336.74 111.832 337.254V337.254Z" fill="#FF002C"/>
<path d="M77.8278 337.254C76.5009 336.741 75.0074 337.399 74.493 338.727C73.979 340.054 74.6381 341.547 75.9655 342.062C77.6971 342.732 79.0637 344.038 79.8135 345.739C80.5635 347.44 80.6058 349.33 79.9331 351.062C79.4176 352.388 80.0754 353.882 81.4023 354.398C81.7087 354.517 82.0245 354.573 82.3351 354.573C83.3674 354.573 84.3417 353.949 84.7381 352.928C85.9101 349.913 85.8361 346.62 84.5301 343.659C83.2246 340.697 80.844 338.423 77.8278 337.254V337.254Z" fill="#FF002C"/>
<path d="M36.5775 366.713C38.0008 366.713 39.155 365.551 39.155 364.128C39.155 362.705 38.0008 361.55 36.5775 361.55C35.1542 361.55 34 362.705 34 364.128V364.142C34 365.566 35.1542 366.713 36.5775 366.713Z" fill="#1A73E8"/>
<circle cx="95" cy="369" r="92.5" stroke="white" stroke-width="5"/>
<path d="M132.376 637H57.5934C56.3794 637 55.394 637.983 55.394 639.199V647.997C55.394 649.213 56.3794 650.196 57.5934 650.196C58.8074 650.196 59.7928 649.213 59.7928 647.997V641.398H130.176V647.997C130.176 649.213 131.162 650.196 132.376 650.196C133.59 650.196 134.575 649.213 134.575 647.997V639.199C134.575 637.983 133.59 637 132.376 637Z" fill="#FF002C"/>
<path d="M94.9846 630.401C93.7705 630.401 92.7852 631.384 92.7852 632.601V639.199C92.7852 640.415 93.7705 641.398 94.9846 641.398C96.1986 641.398 97.1839 640.415 97.1839 639.199V632.601C97.1839 631.384 96.1986 630.401 94.9846 630.401Z" fill="#FF002C"/>
<path d="M79.5902 645.797H35.5961C31.9582 645.797 29 648.758 29 652.394V683.191C29 686.827 31.9582 689.787 35.5961 689.787H79.5902C83.2281 689.787 86.1863 686.827 86.1863 683.191V652.394C86.1866 648.758 83.2281 645.797 79.5902 645.797ZM81.7875 683.191C81.7875 684.403 80.8021 685.388 79.5902 685.388H35.5961C34.3842 685.388 33.3988 684.403 33.3988 683.191V652.394C33.3988 651.182 34.3842 650.196 35.5961 650.196H79.5902C80.8021 650.196 81.7875 651.182 81.7875 652.394V683.191Z" fill="#1A73E8"/>
<path d="M83.9869 676.59H31.1994C29.9854 676.59 29 677.573 29 678.79V683.191C29 686.827 31.9582 689.787 35.5961 689.787H79.5902C83.2281 689.787 86.1863 686.826 86.1863 683.191V678.79C86.1866 677.573 85.2012 676.59 83.9869 676.59ZM81.7875 683.191C81.7875 684.403 80.8021 685.388 79.5902 685.388H35.5961C34.3842 685.388 33.3988 684.403 33.3988 683.191V680.989H81.7875V683.191Z" fill="#1A73E8"/>
<path d="M64.1917 685.388H50.9948C49.7808 685.388 48.7954 686.371 48.7954 687.588V700.784C48.7954 702.001 49.7808 702.984 50.9948 702.984H64.1917C65.4057 702.984 66.3911 702.001 66.3911 700.784V687.588C66.3913 686.371 65.4059 685.388 64.1917 685.388ZM61.9923 698.585H53.1945V689.787H61.9923V698.585Z" fill="#1A73E8"/>
<path d="M70.7899 698.585H44.3962C43.1822 698.585 42.1968 699.568 42.1968 700.784C42.1968 702.001 43.1822 702.984 44.3962 702.984H70.7899C72.0039 702.984 72.9893 702.001 72.9893 700.784C72.9896 699.568 72.0042 698.585 70.7899 698.585Z" fill="#1A73E8"/>
<path d="M154.372 645.797H110.378C106.74 645.797 103.782 648.758 103.782 652.393V683.191C103.782 686.827 106.74 689.787 110.378 689.787H154.372C158.01 689.787 160.969 686.826 160.969 683.191V652.394C160.969 648.758 158.01 645.797 154.372 645.797ZM156.569 683.191C156.569 684.403 155.584 685.388 154.372 685.388H110.378C109.166 685.388 108.181 684.403 108.181 683.191V652.394C108.181 651.182 109.166 650.196 110.378 650.196H154.372C155.584 650.196 156.57 651.182 156.57 652.394V683.191H156.569Z" fill="#1A73E8"/>
<path d="M158.769 676.59H105.982C104.768 676.59 103.782 677.573 103.782 678.79V683.191C103.782 686.827 106.74 689.787 110.378 689.787H154.372C158.01 689.787 160.969 686.826 160.969 683.191V678.79C160.969 677.573 159.983 676.59 158.769 676.59ZM156.569 683.191C156.569 684.403 155.584 685.388 154.372 685.388H110.378C109.166 685.388 108.181 684.403 108.181 683.191V680.989H156.569V683.191V683.191Z" fill="#1A73E8"/>
<path d="M138.974 685.388H125.778C124.564 685.388 123.578 686.371 123.578 687.588V700.784C123.578 702.001 124.564 702.984 125.778 702.984H138.974C140.188 702.984 141.174 702.001 141.174 700.784V687.588C141.174 686.371 140.188 685.388 138.974 685.388ZM136.775 698.585H127.977V689.787H136.775V698.585Z" fill="#1A73E8"/>
<path d="M145.573 698.585H119.179C117.965 698.585 116.979 699.568 116.979 700.784C116.979 702.001 117.965 702.984 119.179 702.984H145.573C146.787 702.984 147.772 702.001 147.772 700.784C147.772 699.568 146.787 698.585 145.573 698.585Z" fill="#1A73E8"/>
<path d="M116.981 571.017H72.9872C69.3493 571.017 66.3911 573.978 66.3911 577.613V608.408C66.3911 612.044 69.3493 615.004 72.9872 615.004H116.981C120.619 615.004 123.577 612.044 123.577 608.408V577.614C123.577 573.978 120.619 571.017 116.981 571.017ZM119.179 608.409C119.179 609.621 118.193 610.606 116.981 610.606H72.9872C71.7753 610.606 70.7899 609.621 70.7899 608.409V577.614C70.7899 576.402 71.7753 575.416 72.9872 575.416H116.981C118.193 575.416 119.179 576.402 119.179 577.614V608.409V608.409Z" fill="#1A73E8"/>
<path d="M121.378 601.808H68.5905C67.3765 601.808 66.3911 602.791 66.3911 604.007V608.408C66.3911 612.044 69.3493 615.004 72.9872 615.004H116.981C120.619 615.004 123.577 612.044 123.577 608.408V604.007C123.577 602.791 122.592 601.808 121.378 601.808ZM119.179 608.409C119.179 609.621 118.193 610.606 116.981 610.606H72.9872C71.7753 610.606 70.7899 609.621 70.7899 608.409V606.207H119.178V608.409H119.179Z" fill="#1A73E8"/>
<path d="M101.583 610.606H88.3859C87.1719 610.606 86.1865 611.589 86.1865 612.805V626.002C86.1865 627.219 87.1719 628.202 88.3859 628.202H101.583C102.797 628.202 103.782 627.219 103.782 626.002V612.805C103.782 611.589 102.797 610.606 101.583 610.606ZM99.3834 623.803H90.5856V615.005H99.3834V623.803Z" fill="#1A73E8"/>
<path d="M108.182 623.803H81.7878C80.5738 623.803 79.5884 624.786 79.5884 626.002C79.5884 627.218 80.5738 628.202 81.7878 628.202H108.182C109.396 628.202 110.381 627.218 110.381 626.002C110.381 624.786 109.396 623.803 108.182 623.803Z" fill="#1A73E8"/>
<circle cx="95" cy="643" r="92.5" stroke="white" stroke-width="5"/>
<path d="M95 187V274" stroke="white" stroke-width="5"/>
<path d="M95 462V551" stroke="white" stroke-width="5"/>
</svg>
