<?xml version="1.0" encoding="UTF-8"?>
<!DOCTYPE svg PUBLIC "-//W3C//DTD SVG 1.1//EN" "http://www.w3.org/Graphics/SVG/1.1/DTD/svg11.dtd">
<!-- Creator: CorelDRAW 2020 (64-Bit) -->
<svg xmlns="http://www.w3.org/2000/svg" xml:space="preserve" width="29.6333mm" height="17.362mm" version="1.1" style="shape-rendering:geometricPrecision; text-rendering:geometricPrecision; image-rendering:optimizeQuality; fill-rule:evenodd; clip-rule:evenodd"
viewBox="0 0 776.16 454.75"
 xmlns:xlink="http://www.w3.org/1999/xlink"
 xmlns:xodm="http://www.corel.com/coreldraw/odm/2003">
 <defs>
  <style type="text/css">
   <![CDATA[
    .fil4 {fill:#3F6FA4;fill-rule:nonzero}
    .fil1 {fill:#89BBE1;fill-rule:nonzero}
    .fil2 {fill:#8BC3B6;fill-rule:nonzero}
    .fil3 {fill:#D16E52;fill-rule:nonzero}
    .fil0 {fill:#DAAA49;fill-rule:nonzero}
   ]]>
  </style>
 </defs>
 <g id="Layer_x0020_1">
  <metadata id="CorelCorpID_0Corel-Layer"/>
  <g id="_2230535927392">
   <path class="fil0" d="M629.61 318.89c-29.42,0 -53.36,23.94 -53.36,53.36 0,29.42 23.94,53.36 53.36,53.36 29.42,0 53.36,-23.94 53.36,-53.36 0,-29.42 -23.94,-53.36 -53.36,-53.36zm0 119.73c-36.59,0 -66.37,-29.78 -66.37,-66.37 0,-36.6 29.78,-66.37 66.37,-66.37 36.6,0 66.38,29.78 66.38,66.37 0,36.6 -29.78,66.37 -66.38,66.37z"/>
   <path class="fil1" d="M723.38 87.95c-21.93,0 -39.76,17.84 -39.76,39.77 0,21.93 17.83,39.76 39.76,39.76 21.93,0 39.77,-17.84 39.77,-39.76 0,-21.93 -17.83,-39.77 -39.77,-39.77zm0 92.54c-29.1,0 -52.77,-23.68 -52.77,-52.77 0,-29.1 23.67,-52.78 52.77,-52.78 29.11,0 52.78,23.68 52.78,52.78 0,29.1 -23.67,52.77 -52.78,52.77z"/>
   <path class="fil2" d="M61.02 109.18c-26.47,0 -48.01,21.54 -48.01,48.01 0,26.47 21.54,48.01 48.01,48.01 26.47,0 48.01,-21.54 48.01,-48.01 0,-26.47 -21.54,-48.01 -48.01,-48.01zm0 109.03c-33.65,0 -61.02,-27.37 -61.02,-61.02 0,-33.65 27.37,-61.02 61.02,-61.02 33.65,0 61.02,27.37 61.02,61.02 0,33.65 -27.37,61.02 -61.02,61.02z"/>
   <path class="fil3" d="M145.32 377.82c-17.62,0 -31.96,14.34 -31.96,31.96 0,17.62 14.34,31.96 31.96,31.96 17.62,0 31.96,-14.34 31.96,-31.96 0,-17.62 -14.34,-31.96 -31.96,-31.96zm0 76.93c-24.8,0 -44.97,-20.17 -44.97,-44.97 0,-24.8 20.17,-44.97 44.97,-44.97 24.8,0 44.97,20.17 44.97,44.97 0,24.8 -20.17,44.97 -44.97,44.97z"/>
   <path class="fil0" d="M198.63 296.55c-5.02,0 -9.11,4.09 -9.11,9.11 0,5.02 4.09,9.11 9.11,9.11 5.03,0 9.11,-4.09 9.11,-9.11 0,-5.03 -4.09,-9.11 -9.11,-9.11zm0 31.24c-12.2,0 -22.13,-9.92 -22.13,-22.12 0,-12.2 9.93,-22.13 22.13,-22.13 12.2,0 22.13,9.92 22.13,22.13 0,12.2 -9.93,22.12 -22.13,22.12z"/>
   <path class="fil1" d="M37.51 259.97c0,6.83 -5.54,12.37 -12.37,12.37 -6.83,0 -12.37,-5.54 -12.37,-12.37 0,-6.83 5.54,-12.37 12.37,-12.37 6.83,0 12.37,5.54 12.37,12.37z"/>
   <path class="fil3" d="M379.78 409.78c0,6.83 -5.54,12.37 -12.37,12.37 -6.83,0 -12.37,-5.54 -12.37,-12.37 0,-6.83 5.54,-12.37 12.37,-12.37 6.83,0 12.37,5.54 12.37,12.37z"/>
   <path class="fil3" d="M695.39 249.8c0,6.83 -5.53,12.37 -12.37,12.37 -6.83,0 -12.37,-5.54 -12.37,-12.37 0,-6.83 5.54,-12.37 12.37,-12.37 6.83,0 12.37,5.54 12.37,12.37z"/>
   <path class="fil2" d="M594.57 12.37c0,6.83 -5.53,12.37 -12.37,12.37 -6.83,0 -12.37,-5.54 -12.37,-12.37 0,-6.83 5.53,-12.37 12.37,-12.37 6.83,0 12.37,5.54 12.37,12.37z"/>
   <path class="fil3" d="M180.23 12.37c0,6.83 -5.54,12.37 -12.37,12.37 -6.83,0 -12.37,-5.54 -12.37,-12.37 0,-6.83 5.54,-12.37 12.37,-12.37 6.83,0 12.37,5.54 12.37,12.37z"/>
   <path class="fil0" d="M395.81 68.99c0,6.83 -5.54,12.37 -12.37,12.37 -6.83,0 -12.37,-5.54 -12.37,-12.37 0,-6.83 5.54,-12.37 12.37,-12.37 6.83,0 12.37,5.54 12.37,12.37z"/>
   <path class="fil2" d="M164.26 329.45c0,6.83 -5.54,12.37 -12.37,12.37 -6.83,0 -12.37,-5.53 -12.37,-12.37 0,-6.83 5.54,-12.37 12.37,-12.37 6.83,0 12.37,5.54 12.37,12.37z"/>
   <path class="fil2" d="M461.97 411.03c-5.03,0 -9.12,4.09 -9.12,9.11 0,5.02 4.09,9.11 9.12,9.11 5.02,0 9.11,-4.09 9.11,-9.11 0,-5.03 -4.09,-9.11 -9.11,-9.11zm0 31.24c-12.2,0 -22.13,-9.92 -22.13,-22.12 0,-12.2 9.92,-22.13 22.13,-22.13 12.2,0 22.12,9.93 22.12,22.13 0,12.2 -9.93,22.12 -22.12,22.12z"/>
   <polygon class="fil0" points="575.63,346.02 499.36,301.38 505.93,290.14 582.2,334.79 "/>
   <polygon class="fil1" points="503.12,211.43 499.04,199.07 675.07,140.89 679.16,153.25 "/>
   <polygon class="fil2" points="252.17,218.67 112.05,176.63 115.79,164.17 255.91,206.21 "/>
   <polygon class="fil0" points="213.42,304.02 210.67,291.3 252.66,282.23 255.41,294.95 "/>
   <polygon class="fil3" points="182.04,396.71 175.76,385.32 277.06,329.45 283.35,340.85 "/>
   <polygon class="fil2" points="450.24,407.25 432.91,369.73 444.73,364.27 462.05,401.8 "/>
   <path class="fil1" d="M294.36 88.09c5.01,-0.38 8.78,-4.76 8.4,-9.77 -0.38,-5.01 -4.76,-8.78 -9.77,-8.4 -5.01,0.38 -8.78,4.76 -8.41,9.77 0.38,5.01 4.76,8.78 9.77,8.4zm-2.35 -31.15c12.17,-0.92 22.81,8.23 23.73,20.4 0.92,12.17 -8.23,22.81 -20.4,23.73 -12.17,0.92 -22.81,-8.23 -23.73,-20.4 -0.92,-12.17 8.23,-22.81 20.4,-23.73z"/>
   <polygon class="fil1" points="306.33,90.97 326.43,127.1 315.06,133.42 294.96,97.3 "/>
   <path class="fil3" d="M482.89 44.41c2.8,4.17 8.48,5.29 12.65,2.48 4.17,-2.8 5.29,-8.48 2.48,-12.65 -2.81,-4.17 -8.48,-5.28 -12.65,-2.48 -4.17,2.8 -5.28,8.48 -2.48,12.65zm25.93 -17.42c6.8,10.13 4.1,23.9 -6.02,30.71 -10.13,6.8 -23.9,4.1 -30.71,-6.02 -6.8,-10.13 -4.1,-23.9 6.02,-30.71 10.13,-6.8 23.9,-4.1 30.71,6.02z"/>
   <polygon class="fil3" points="486.3,56.25 441.82,132.62 430.71,125.86 475.18,49.48 "/>
   <path class="fil3" d="M501.62 227.62l14.68 -1.04c-6.19,-36.52 -26.74,-68.22 -55.6,-89.07l-7.7 12.49c24.99,18.39 42.86,45.92 48.62,77.62z"/>
   <path class="fil2" d="M379.78 125.97c27.37,0 52.7,8.93 73.22,24.03l7.7 -12.49c-22.77,-16.46 -50.73,-26.18 -80.92,-26.18 -29.75,0 -57.33,9.43 -79.93,25.46l9.43 11.27c20.02,-13.91 44.32,-22.09 70.5,-22.09z"/>
   <path class="fil0" d="M309.28 148.05l-9.43 -11.27c-14.75,10.46 -27.36,23.74 -37.06,39.03l12.68 7.34c8.85,-13.81 20.36,-25.75 33.81,-35.1z"/>
   <path class="fil1" d="M516.3 226.58l-14.68 1.04c1.31,7.2 2,14.61 2,22.18 0,68.28 -55.55,123.83 -123.84,123.83 -68.28,0 -123.83,-55.55 -123.83,-123.83 0,-24.52 7.18,-47.39 19.53,-66.65l-12.68 -7.34c-13.59,21.42 -21.48,46.8 -21.48,73.99 0,76.35 62.12,138.47 138.47,138.47 76.36,0 138.48,-62.12 138.48,-138.47 0,-7.91 -0.68,-15.67 -1.96,-23.22z"/>
   <path class="fil4" d="M145.28 419.76c-0,0 -0.01,0 -0.01,0l-0.13 -0.01c-5.08,-0.09 -9.21,-4.3 -9.21,-9.38 0,-5.08 4.13,-9.29 9.2,-9.38 0.06,-0 0.11,-0 0.17,-0.01l0.03 -0c5.16,0.02 9.35,4.22 9.35,9.4 0,5.18 -4.2,9.39 -9.41,9.39zm22.58 -14.46c0,-0.65 -0.44,-1.19 -1.07,-1.33l-4.86 -1.09 2.67 -4.21c0.34,-0.54 0.27,-1.24 -0.19,-1.7l-6.31 -6.33c-0.45,-0.45 -1.18,-0.52 -1.7,-0.19l-4.2 2.67 -1.09 -4.87c-0.14,-0.63 -0.69,-1.07 -1.33,-1.07l-8.93 0c-0.65,0 -1.19,0.44 -1.33,1.07l-1.09 4.87 -4.2 -2.67c-0.53,-0.34 -1.26,-0.26 -1.7,0.19l-6.31 6.33c-0.45,0.46 -0.53,1.15 -0.19,1.7l2.67 4.21 -4.86 1.09c-0.63,0.14 -1.07,0.69 -1.07,1.34l0 8.95c0,0.64 0.44,1.19 1.07,1.33l4.86 1.09 -2.67 4.21c-0.35,0.54 -0.27,1.24 0.19,1.7l6.31 6.33c0.44,0.45 1.17,0.52 1.7,0.19l4.2 -2.67 1.08 4.87c0.14,0.62 0.7,1.07 1.33,1.07l0 0 8.93 -0c0.65,0 1.19,-0.44 1.33,-1.07l1.09 -4.87 4.2 2.67c0.53,0.34 1.26,0.25 1.7,-0.19l6.31 -6.33c0.45,-0.45 0.53,-1.16 0.19,-1.7l-2.67 -4.21 4.86 -1.09c0.63,-0.14 1.07,-0.69 1.07,-1.33l0 -8.95z"/>
   <path class="fil4" d="M734.91 131.67c-2.1,0 -3.8,-1.7 -3.8,-3.8 0,-2.09 1.7,-3.8 3.8,-3.8 2.09,0 3.79,1.71 3.79,3.8 0,2.1 -1.7,3.8 -3.79,3.8zm-11.44 0c-2.09,0 -3.79,-1.7 -3.79,-3.8 0,-2.09 1.7,-3.8 3.79,-3.8 2.1,0 3.8,1.71 3.8,3.8 0,2.1 -1.7,3.8 -3.8,3.8zm-11.99 0c-2.1,0 -3.8,-1.7 -3.8,-3.8 0,-2.09 1.7,-3.8 3.8,-3.8 2.09,0 3.79,1.71 3.79,3.8 0,2.1 -1.7,3.8 -3.79,3.8zm11.9 -31.36c-17.51,0 -31.77,11.19 -31.77,24.95 0,13.76 14.25,24.95 31.77,24.95 0.92,0 1.87,-0.03 2.82,-0.1l2.49 6.03c0.19,0.46 0.6,0.79 1.08,0.87 0.08,0.02 0.17,0.02 0.25,0.02 0.42,0 0.81,-0.18 1.08,-0.48l9.09 -10.12c9.37,-4.59 14.95,-12.49 14.95,-21.17 0,-13.76 -14.25,-24.95 -31.77,-24.95z"/>
   <path class="fil4" d="M387.74 322.4l45.05 -18.17c1.49,-0.6 2.23,-2.26 1.69,-3.76l-0.63 -1.76c-0.1,-0.28 -0.04,-0.58 0.14,-0.81 9.05,-11.85 2.87,-27.62 2.87,-27.62l-9.08 -23.2c-0.02,-0.05 -0.02,-0.07 -0.04,-0.11 -0.17,-0.8 -2.71,-11.84 -10.95,-11.84 -4.76,0 -7.39,2.08 -8.78,3.92 -0.46,0.61 -1.4,0.46 -1.58,-0.29 -0.57,-2.38 -2.45,-5.39 -8.21,-6.04 -6.4,-0.73 -8.95,2.87 -9.96,5.47 -0.27,0.7 -1.26,0.75 -1.58,0.08 -2.07,-4.29 -6.48,-9.26 -12.05,-7.41 -3.82,1.28 -5.58,3.74 -6.38,5.61 -0.31,0.73 -1.34,0.74 -1.63,-0l-9.26 -23.8c0,0 -4.46,-14.3 -13.75,-10.77 -9.29,3.53 -4.27,15.79 -4.27,15.79l21.39 56.5c0.3,0.78 -0.56,1.5 -1.28,1.06l-10.2 -6.17c-0.04,-0.03 -0.06,-0.04 -0.1,-0.08 -0.74,-0.64 -11.54,-9.83 -18.35,-2.66 -6.79,7.15 0.68,14.98 1.27,15.57 0.04,0.03 0.06,0.05 0.09,0.08l50.65 36.78c0.1,0.11 0.19,0.22 0.28,0.34l0.85 1.81c0.67,1.43 2.34,2.09 3.81,1.5z"/>
   <path class="fil4" d="M450.8 331.46l-10.15 -22.85c-0.73,-1.64 -2.63,-2.41 -4.3,-1.74l-49.72 20.02c-1.77,0.72 -2.59,2.76 -1.79,4.49l10.34 22.42c0.74,1.61 2.61,2.36 4.26,1.71l49.55 -19.59c1.76,-0.7 2.59,-2.72 1.82,-4.46z"/>
   <path class="fil4" d="M328.5 181.38c0.91,2.36 3.16,3.81 5.55,3.81 0.71,0 1.43,-0.13 2.13,-0.4 3.06,-1.18 4.59,-4.62 3.41,-7.68l-6.21 -16.12c-1.18,-3.06 -4.62,-4.59 -7.68,-3.41 -3.06,1.18 -4.59,4.62 -3.41,7.68l6.21 16.12z"/>
   <path class="fil4" d="M301.59 191.29l15.79 7.01c0.79,0.35 1.6,0.51 2.41,0.51 2.28,0 4.45,-1.31 5.43,-3.53 1.33,-3 -0.02,-6.51 -3.02,-7.84l-15.79 -7.01c-3,-1.33 -6.51,0.02 -7.84,3.02 -1.33,3 0.02,6.51 3.02,7.84z"/>
   <path class="fil4" d="M385.15 215.23l-15.79 -7.01c-3,-1.33 -6.51,0.02 -7.84,3.02 -1.33,3 0.02,6.51 3.02,7.84l15.79 7.01c0.78,0.35 1.6,0.51 2.41,0.51 2.28,0 4.45,-1.32 5.43,-3.53 1.33,-3 -0.02,-6.51 -3.02,-7.84z"/>
   <path class="fil4" d="M324.9 210.45c-1.18,-3.06 -4.62,-4.59 -7.68,-3.41l-16.12 6.2c-3.06,1.18 -4.59,4.62 -3.41,7.68 0.91,2.36 3.16,3.81 5.55,3.81 0.71,0 1.43,-0.13 2.13,-0.4l16.12 -6.21c3.06,-1.18 4.59,-4.62 3.41,-7.68z"/>
   <path class="fil4" d="M361.84 196.07c0.91,2.36 3.16,3.81 5.55,3.81 0.71,0 1.43,-0.13 2.13,-0.4l16.12 -6.21c3.06,-1.18 4.59,-4.62 3.41,-7.68 -1.18,-3.06 -4.62,-4.59 -7.68,-3.41l-16.12 6.21c-3.06,1.18 -4.59,4.62 -3.41,7.68z"/>
   <path class="fil4" d="M331.4 245.04l7.01 -15.79c1.33,-3 -0.02,-6.51 -3.02,-7.84 -3,-1.33 -6.51,0.02 -7.84,3.02l-7.01 15.79c-1.33,3 0.02,6.51 3.02,7.84 0.78,0.35 1.6,0.51 2.41,0.51 2.28,0 4.45,-1.32 5.43,-3.53z"/>
   <path class="fil4" d="M351.35 185.12c0.78,0.35 1.6,0.51 2.41,0.51 2.28,0 4.45,-1.32 5.44,-3.54l7.01 -15.79c1.33,-3 -0.02,-6.51 -3.02,-7.84 -3,-1.34 -6.51,0.02 -7.84,3.02l-7.01 15.79c-1.33,3 0.02,6.51 3.02,7.84z"/>
   <path class="fil4" d="M641.93 395.75l-24.62 0c-1.67,0 -3.03,-1.36 -3.03,-3.03l0 -47.47c0,-1.67 1.36,-3.03 3.03,-3.03l24.62 0c1.67,0 3.03,1.36 3.03,3.03l0 47.47c0,1.67 -1.36,3.03 -3.03,3.03zm-8.45 8.43c0,0.84 -0.67,1.51 -1.52,1.51l-4.7 0c-0.84,0 -1.52,-0.68 -1.52,-1.51l0 -2.59c0,-0.84 0.68,-1.51 1.52,-1.51l4.7 0c0.84,0 1.52,0.68 1.52,1.51l0 2.59zm10.99 -69.07l-29.7 0c-3.44,0 -6.22,2.84 -6.22,6.35l0 61.57c0,3.51 2.78,6.35 6.22,6.35l29.7 0c3.44,0 6.21,-2.84 6.21,-6.35l0 -61.57c0,-3.5 -2.78,-6.35 -6.21,-6.35z"/>
   <path class="fil4" d="M82.79 148.67c-0.67,0 -1.34,0.04 -2.02,0.13 0.07,-0.65 0.1,-1.25 0.1,-1.84 0,-10.25 -8.34,-18.59 -18.59,-18.59 -8.08,0 -15.26,5.29 -17.7,12.95 -0.57,-0.05 -1.1,-0.07 -1.61,-0.07 -10.87,0 -19.72,8.85 -19.72,19.72 0,10.87 8.85,19.72 19.72,19.72l39.82 0c8.83,0 16,-7.18 16,-16.01 0,-8.82 -7.18,-16 -16,-16z"/>
  </g>
 </g>
</svg>
