<svg width="1050" height="601" viewBox="0 0 1050 601" fill="none" xmlns="http://www.w3.org/2000/svg">
<path d="M225.649 601H904.193C983.975 495.905 1006.15 336.454 986.571 198.767C970.306 84.4269 885.862 -35.7336 783.995 10.4578C749.779 25.9741 710.081 84.7201 673.407 82.31C642.199 80.2592 617.055 38.4358 586.044 27.5251C490.316 -6.16123 405.747 60.5897 364.89 162.374C350.353 198.582 341.257 258.583 310.369 278.358C260.096 310.539 222.809 278.647 185.546 350.043C141.791 433.882 171.067 534.782 225.649 601V601Z" fill="#D8F6F9" fill-opacity="0.4"/>
<path d="M1032.98 399.341C1003.04 341.97 973.076 367.598 932.679 341.739C907.857 325.849 900.547 277.633 888.869 248.538C856.035 166.75 788.078 113.109 711.157 140.178C686.238 148.947 666.034 182.555 640.956 184.203C611.485 186.141 579.586 138.933 552.092 126.465C497.469 101.697 449.084 136.453 419.052 189.623C403.248 217.601 370.609 231.138 340.32 221.31C339.83 221.151 339.336 221 338.842 220.855C261.921 198.526 193.964 242.774 161.133 310.244C149.453 334.246 142.142 374.021 117.32 387.127C76.9239 408.461 46.9615 387.319 17.0199 434.646C-18.1408 490.222 5.3851 557.105 49.2455 601H455.506H594.493H1000.76C1044.61 547.791 1068.14 466.711 1032.98 399.341V399.341Z" fill="#BAE8ED" fill-opacity="0.4"/>
<path d="M917.075 447.463C908.805 403.816 865.867 357.951 814.069 375.582C796.672 381.505 776.486 403.93 757.838 403.008C741.968 402.226 729.184 386.261 713.415 382.096C664.741 369.238 621.738 394.719 600.964 433.57C593.572 447.391 588.947 470.294 573.24 477.843C573.161 477.882 573.081 477.919 573 477.959C563.438 482.504 551.07 477.324 550.415 468.758C549.863 461.558 548.92 454.437 547.6 447.463C539.33 403.816 496.391 357.951 444.594 375.582C427.194 381.505 407.011 403.93 388.363 403.008C372.493 402.226 359.709 386.261 343.94 382.096C295.266 369.238 252.263 394.719 231.488 433.57C224.097 447.391 219.471 470.294 203.767 477.843C178.203 490.127 159.243 477.954 140.297 505.205C118.047 537.209 132.935 575.723 160.687 601H875.188C915.754 560.885 927.033 500.019 917.075 447.463Z" fill="#D8F6F9" fill-opacity="0.4"/>
<path d="M258.59 228.443C261.705 230.548 264.632 232.724 267.536 235.004C268.997 236.13 270.409 237.303 271.854 238.453C273.28 239.618 274.679 240.81 276.099 241.991C281.676 246.803 287.091 251.818 292.374 256.989C297.643 262.171 302.713 267.565 307.631 273.108L311.31 277.282C312.548 278.666 313.701 280.114 314.902 281.53L318.478 285.81C319.658 287.245 320.789 288.715 321.948 290.171L325.386 294.57C326.516 296.049 327.599 297.561 328.709 299.056L332.025 303.563C333.139 305.06 334.16 306.619 335.232 308.145C337.337 311.227 339.499 314.281 341.468 317.455L344.488 322.185C345.493 323.763 346.52 325.332 347.454 326.954C355.255 339.748 362.082 353.157 368.27 366.891L370.594 372.048L371.774 374.624L372.875 377.23L377.381 387.655C378.839 391.154 380.209 394.69 381.627 398.219C382.325 399.987 383.028 401.757 383.7 403.537L385.575 408.925C386.761 412.536 388.016 416.141 389.02 419.809C389.981 423.488 390.868 427.188 391.691 430.902C392.567 434.607 393.069 438.38 393.592 442.147C393.851 444.031 394.078 445.918 394.295 447.806C394.508 449.696 394.74 451.579 394.82 453.483L395.105 459.183L395.318 464.879L395.397 467.725L395.434 469.146L395.401 470.573C395.351 472.477 395.316 474.375 395.24 476.275C395.176 478.173 395.101 480.069 395.004 481.963C394.913 483.857 394.822 485.749 394.669 487.638C394.27 491.424 393.836 495.197 393.326 498.956C393.082 500.835 392.799 502.708 392.528 504.58C392.236 506.451 391.817 508.318 391.422 510.178C390.647 513.902 389.779 517.607 388.869 521.285L388.15 524.04C387.883 524.955 387.609 525.87 387.305 526.781C386.703 528.605 386.133 530.422 385.482 532.229C384.221 535.848 382.881 539.435 381.294 542.971C380.841 543.978 379.659 544.431 378.65 543.978C378.123 543.743 377.749 543.307 377.576 542.803L377.547 542.719C376.29 539.022 375.281 535.377 374.351 531.76C373.868 529.951 373.46 528.152 373.024 526.36C372.797 525.463 372.627 524.567 372.41 523.675L371.704 520.998C370.806 517.438 369.955 513.9 369.194 510.383C369 509.503 368.789 508.625 368.615 507.748C368.429 506.872 368.268 505.996 368.028 505.123C367.609 503.376 367.175 501.635 366.782 499.896C365.968 496.42 365.234 492.958 364.533 489.507C363.735 486.067 362.894 482.645 362.171 479.224C361.786 477.517 361.445 475.809 361.09 474.103C360.771 472.395 360.302 470.707 359.914 469.012L358.748 463.935L357.652 458.861C357.34 457.164 356.882 455.491 356.499 453.81C356.106 452.128 355.724 450.447 355.373 448.762C354.643 445.398 354.085 442.005 353.318 438.653C352.626 435.284 352.001 431.903 351.45 428.5C351.189 426.794 350.817 425.115 350.507 423.419L349.602 418.318L348.781 413.184L347.77 408.087L346.774 402.973C346.421 401.272 346.154 399.541 345.724 397.86C344.889 394.489 344.087 391.098 343.223 387.722L342.564 385.19L341.803 382.693L340.243 377.705L338.661 372.717C338.097 371.067 337.492 369.432 336.909 367.788L335.144 362.854L334.261 360.384C333.963 359.56 333.622 358.756 333.304 357.943L329.47 348.16L325.311 338.492C322.471 332.069 319.53 325.665 316.336 319.376C315.545 317.798 314.805 316.189 313.97 314.634L311.49 309.952C310.654 308.393 309.848 306.815 308.991 305.266L306.372 300.648C299.445 288.271 291.748 276.27 283.435 264.635C279.272 258.821 274.93 253.119 270.405 247.549C265.918 241.962 261.162 236.491 256.234 231.365L256.176 231.308C255.457 230.558 255.48 229.366 256.23 228.646C256.883 228.02 257.869 227.958 258.59 228.443V228.443Z" fill="#1780A8"/>
<path d="M468.978 211.097C460.547 237.751 454.323 265.07 449.179 292.354C448.505 295.758 447.934 299.188 447.325 302.602C446.7 306.014 446.167 309.444 445.615 312.866L444.776 317.994L444.001 323.135C443.484 326.559 442.953 329.977 442.517 333.411C440.535 347.102 438.887 360.817 437.569 374.539C436.849 381.389 436.533 388.291 436.233 395.175C436.136 398.624 436.093 402.075 436.02 405.518L435.919 410.679L435.874 415.84L435.758 420.986L435.576 426.123C435.473 429.549 435.32 432.965 435.063 436.374C434.784 439.782 434.541 443.192 434.208 446.597C433.883 450.003 433.443 453.405 433.017 456.812L432.385 461.924L431.684 467.037L430.925 472.159C430.688 473.867 430.465 475.577 430.2 477.289C429.706 480.711 429.135 484.138 428.538 487.572C427.984 491.007 427.43 494.449 426.781 497.9C425.452 504.807 424.179 511.742 422.544 518.741C420.884 525.742 419.336 532.782 416.881 539.953L416.858 540.019C416.5 541.066 415.359 541.624 414.311 541.267C413.768 541.081 413.354 540.68 413.133 540.197C406.928 526.5 402.987 512.382 400.223 498.136C399.535 494.573 398.907 491 398.344 487.419C397.854 483.84 397.394 480.255 397.007 476.663C396.796 474.867 396.627 473.07 396.445 471.271C396.277 469.472 396.189 467.675 396.056 465.877L395.746 460.476L395.502 455.073C395.397 451.471 395.426 447.874 395.49 444.276C395.56 440.678 395.692 437.083 396.021 433.502C396.315 429.916 396.709 426.342 397.158 422.773C397.635 419.206 398.264 415.656 398.882 412.11L399.868 406.8L400.982 401.509L403.251 390.953C404.882 383.94 406.335 376.922 407.881 369.927C413.72 341.895 421.525 314.335 431.049 287.47C435.828 274.044 440.991 260.772 446.69 247.747C449.565 241.241 452.496 234.775 455.603 228.389C458.771 222.018 461.958 215.713 465.569 209.519C466.092 208.621 467.248 208.315 468.147 208.84C468.924 209.292 469.257 210.213 468.996 211.035L468.978 211.097V211.097Z" fill="#1780A8"/>
<path d="M245.565 342.939C250.184 340.144 255.621 338.335 261.257 337.788C266.9 337.21 272.66 337.842 278.148 339.238C280.889 339.948 283.605 340.803 286.205 341.871C287.532 342.367 288.791 342.968 290.089 343.527C291.341 344.141 292.631 344.727 293.857 345.392C298.803 348.007 303.495 351.041 307.912 354.37C312.319 357.713 316.49 361.326 320.456 365.126C324.404 368.942 328.12 372.967 331.669 377.119C335.169 381.307 338.499 385.623 341.638 390.064C344.759 394.514 347.715 399.07 350.524 403.713C353.331 408.358 356.121 413.023 358.858 417.738C361.594 422.453 364.279 427.226 366.696 432.124C369.091 437.029 371.173 442.075 372.791 447.259C374.432 452.436 375.567 457.758 376.359 463.13C377.15 468.502 377.599 473.925 377.748 479.359C377.909 484.79 377.715 490.243 377.177 495.678C376.677 501.11 375.716 506.542 374.426 511.915C374.064 513.262 373.736 514.6 373.349 515.939C372.948 517.277 372.545 518.611 372.08 519.941C371.202 522.599 370.141 525.247 368.876 527.869C368.364 528.931 367.086 529.377 366.022 528.865C365.656 528.689 365.363 528.423 365.158 528.105L365.125 528.053C363.546 525.6 362.268 523.163 360.97 520.751C359.695 518.338 358.502 515.947 357.339 513.574C355.028 508.826 352.915 504.146 350.898 499.518C346.88 490.261 343.308 481.193 339.921 472.207C338.23 467.713 336.711 463.211 335.346 458.667C333.984 454.126 332.856 449.514 331.771 444.859C330.679 440.208 329.609 435.522 328.321 430.891C327.044 426.259 325.526 421.699 323.722 417.273C321.926 412.845 319.993 408.473 317.908 404.182C315.841 399.882 313.648 395.642 311.273 391.522C308.945 387.366 306.436 383.329 303.76 379.419C301.099 375.499 298.247 371.722 295.18 368.16C292.139 364.562 288.842 361.239 285.331 358.195C284.463 357.41 283.551 356.714 282.654 355.968C281.73 355.287 280.823 354.543 279.87 353.911C277.987 352.565 276.027 351.377 274.016 350.27C269.98 348.118 265.664 346.462 261.114 345.741C256.563 344.911 251.803 345.198 247.059 346.381L247.006 346.396C245.991 346.648 244.961 346.032 244.707 345.016C244.502 344.192 244.875 343.358 245.565 342.939V342.939Z" fill="#3181EA"/>
<path d="M356.669 173.716C359.79 180.897 362.524 188.142 365.247 195.436C367.905 202.741 370.408 210.099 372.859 217.485C374.066 221.182 375.29 224.878 376.402 228.604L378.115 234.184L379.769 239.779C380.889 243.509 381.943 247.255 383.008 251.002C384.091 254.744 385.091 258.507 386.118 262.266C387.142 266.026 388.08 269.804 389.045 273.581C390.025 277.356 390.934 281.144 391.85 284.936L393.208 290.626L394.487 296.334C395.335 300.14 396.211 303.944 396.997 307.765C397.77 311.588 398.58 315.409 399.32 319.24L401.509 330.747L403.512 342.29C404.196 346.137 404.799 349.997 405.405 353.857C407.828 369.297 410.738 384.739 412.937 400.299C413.452 404.19 413.95 408.085 414.345 411.988C414.694 415.895 414.969 419.807 415.178 423.723C415.275 425.681 415.368 427.638 415.407 429.598C415.438 431.558 415.45 433.52 415.436 435.482C415.415 439.404 415.333 443.328 415.167 447.252L414.803 453.136L414.371 459.018C414.206 460.978 414.061 462.936 413.873 464.894C413.662 466.851 413.454 468.809 413.212 470.765C412.755 474.677 412.224 478.584 411.666 482.483C411.064 486.385 410.364 490.278 409.622 494.162C406.61 509.697 402.549 525.118 396.191 540.162C395.763 541.172 394.599 541.644 393.588 541.217C393.026 540.979 392.629 540.515 392.462 539.972L392.443 539.908C390.064 532.043 388.584 524.296 387.009 516.579C386.257 512.723 385.548 508.877 384.93 505.046C384.308 501.213 383.634 497.388 383.068 493.572C382.472 489.757 381.991 485.949 381.474 482.147C380.943 478.345 380.441 474.549 380.011 470.759L378.727 459.398L378.14 453.727L377.621 448.06C377.249 444.282 376.916 440.507 376.668 436.73C376.54 434.842 376.437 432.954 376.35 431.067C376.251 429.177 376.139 427.289 376.067 425.4C375.922 421.62 375.842 417.837 375.838 414.049C375.782 410.264 375.79 406.472 375.835 402.674L375.957 396.974L376.003 391.271C376.036 387.469 376.129 383.657 376.115 379.851C376.067 376.048 376.055 372.236 375.98 368.43C375.937 364.619 375.699 360.826 375.53 357.023C375.335 353.223 375.145 349.421 374.874 345.625L374.11 334.225L373.26 322.823C372.973 319.023 372.613 315.227 372.293 311.425C372.01 307.618 371.635 303.823 371.288 300.018L370.761 294.314L370.174 288.614C369.8 284.812 369.43 281.006 368.99 277.208C368.564 273.41 368.163 269.601 367.679 265.807C367.229 262.007 366.807 258.197 366.303 254.403C365.815 250.605 365.337 246.801 364.794 243.009C363.781 235.407 362.557 227.842 361.421 220.246C360.226 212.662 358.963 205.081 357.566 197.524C356.228 189.957 354.728 182.386 353.107 174.905L353.097 174.864C352.878 173.848 353.525 172.846 354.542 172.625C355.435 172.433 356.317 172.908 356.669 173.716V173.716Z" fill="#3181EA"/>
<path d="M498.893 333.833C498.881 333.856 498.755 333.897 498.653 333.934C498.556 333.969 498.443 334.015 498.329 334.062C498.106 334.153 497.885 334.244 497.653 334.359C497.2 334.564 496.748 334.82 496.301 335.07C495.855 335.314 495.415 335.617 494.98 335.882C494.546 336.167 494.125 336.491 493.703 336.788C493.279 337.081 492.883 337.451 492.475 337.775L491.872 338.273L491.293 338.818L490.148 339.901L489.059 341.063C486.171 344.151 483.716 347.676 481.519 351.348C480.392 353.155 479.425 355.109 478.408 356.984C477.922 357.945 477.478 358.942 477.011 359.911C476.554 360.888 476.078 361.842 475.677 362.862C474.851 364.88 473.954 366.819 473.228 368.888L472.087 371.937C471.699 372.945 471.391 374.01 471.041 375.041C470.345 377.108 469.638 379.153 469.051 381.276C468.453 383.391 467.778 385.441 467.267 387.595C466.73 389.729 466.134 391.827 465.611 393.956L464.14 400.39C463.871 401.449 463.642 402.527 463.423 403.611L462.749 406.85C462.296 409.006 461.841 411.15 461.463 413.337L460.246 419.844C459.847 422.013 459.537 424.223 459.177 426.404C457.691 435.123 457.435 444.142 456.905 453.043C456.724 455.255 456.571 457.481 456.366 459.697C456.149 461.911 455.86 464.109 455.49 466.294C455.31 467.389 455.097 468.473 454.884 469.563C454.686 470.658 454.469 471.748 454.227 472.837C453.751 475.013 453.204 477.18 452.596 479.34C451.329 483.646 450.082 487.996 448.569 492.312C447.838 494.474 447.013 496.626 446.193 498.789C445.38 500.955 444.537 503.121 443.615 505.282C441.819 509.613 439.684 513.919 437.47 518.256C436.321 520.418 435.136 522.584 433.814 524.743C432.505 526.903 431.116 529.063 429.477 531.211L429.459 531.236C428.721 532.2 427.34 532.386 426.373 531.649C426.098 531.44 425.883 531.17 425.736 530.881C424.537 528.475 423.591 526.083 422.725 523.691C421.844 521.298 421.1 518.91 420.391 516.521C418.985 511.744 418.014 506.975 417.233 502.215C416.836 499.834 416.515 497.454 416.226 495.077C415.978 492.7 415.79 490.323 415.658 487.952C415.395 483.206 415.24 478.473 415.459 473.752C415.552 471.391 415.703 469.039 415.931 466.695C416.038 465.524 416.172 464.355 416.325 463.188C416.484 462.021 416.689 460.858 416.904 459.7C417.332 457.38 417.84 455.075 418.419 452.785C418.704 451.639 419.035 450.501 419.339 449.359C419.665 448.221 420.054 447.089 420.41 445.953C421.166 443.692 421.945 441.439 422.743 439.194L423.946 435.829L425.217 432.471C426.058 430.235 426.875 427.996 427.66 425.755C428.03 424.632 428.462 423.516 428.863 422.393L430.056 419.027C430.848 416.78 431.583 414.535 432.421 412.298L434.948 405.607C435.765 403.376 436.728 401.172 437.654 398.965L439.047 395.66C439.506 394.559 439.975 393.463 440.49 392.37C444.438 383.636 448.983 375.082 454.14 366.862C459.371 358.69 465.173 350.753 472.372 343.915C475.938 340.495 479.83 337.344 484.16 334.795L485.795 333.868L487.494 333.029L488.339 332.621L489.22 332.257C489.813 332.024 490.373 331.759 490.985 331.563C491.593 331.363 492.182 331.148 492.796 330.97C493.422 330.811 494.021 330.626 494.658 330.502C495.293 330.378 495.921 330.258 496.582 330.192C496.899 330.146 497.24 330.124 497.579 330.105C497.744 330.095 497.911 330.084 498.1 330.084H498.711C499.457 330.082 500.063 330.687 500.063 331.435C500.063 331.679 499.999 331.906 499.887 332.104L498.893 333.833V333.833Z" fill="#3181EA"/>
<path d="M455.843 529.581H340.217V500.174H455.843V529.581Z" fill="#FF002C"/>
<path d="M455.843 529.581H340.217V521.967H455.843V529.581Z" fill="#C1262D" fill-opacity="0.301961"/>
<path d="M431.528 601H364.534L349.512 529.581H446.548L431.528 601Z" fill="#FF3154"/>
<path d="M349.512 529.581L351.021 536.75H420.557L415.139 592.547H362.757L364.534 601H431.528L446.548 529.581H349.512Z" fill="#C1262D" fill-opacity="0.301961"/>
<path d="M830.026 408.13H808.063V581.506H830.026V408.13Z" fill="#B3B3B3"/>
<path d="M874.059 601H764.04C764.04 590.234 772.774 581.506 783.549 581.506H854.549C865.324 581.506 874.059 590.234 874.059 601V601Z" fill="#808080"/>
<path d="M897.714 101.93H792.598C776.852 101.93 764.09 114.683 764.09 130.414V408.13H926.221V130.414C926.221 114.683 913.458 101.93 897.714 101.93V101.93Z" fill="#808080"/>
<path d="M882.587 101.93H777.469C761.725 101.93 748.961 114.683 748.961 130.414V408.13H911.094V130.414C911.094 114.683 898.331 101.93 882.587 101.93V101.93Z" fill="#FF1A41"/>
<path d="M912.016 365.47H689.365V408.13H912.016V365.47Z" fill="#F02941"/>
<path d="M912.016 395.245H689.365V408.13H912.016V395.245Z" fill="#808080"/>
<path d="M918.544 261.146C917.692 253.001 916.204 242.264 914.302 230.452C913.548 249.054 906.285 264.82 883.958 267.526C883.317 267.66 882.627 267.732 881.907 267.763C881.823 267.77 881.746 267.786 881.661 267.792C881.012 267.842 880.4 267.829 879.803 267.792H750.775C746.417 267.792 743.239 265.795 741.287 262.986L739.475 276.291H904.881C913.033 276.291 919.391 269.248 918.544 261.146V261.146Z" fill="#F2FFE2"/>
<path d="M397.128 274.122H960.251V282.503H397.128V274.122Z" fill="#215479"/>
<path d="M723.259 222.439H515.288L491.22 88.9849H699.189L723.259 222.439Z" fill="#1695A3"/>
<path d="M713.653 222.439H505.682L481.612 88.9849H689.583L713.653 222.439Z" fill="#1A73E8" fill-opacity="0.301961"/>
<path d="M503.442 210.031L505.681 222.439H713.652L711.413 210.031H577.011L564.384 172.584L543.074 210.031H503.442Z" fill="#215479" fill-opacity="0.301961"/>
<path d="M598.722 262.264L614.269 172.584H571.416L553.813 274.122H560.279H596.667H647.75V262.264H598.722Z" fill="#133F60"/>
<path d="M607.243 172.584H564.389L546.789 274.122H589.643L607.243 172.584Z" fill="#3181EA"/>
<path d="M426.335 282.503H439.56V601H426.335V282.503Z" fill="#B3B3B3"/>
<path d="M905.395 282.503H918.621V601H905.395V282.503Z" fill="#B3B3B3"/>
<path d="M459.136 282.503H472.36V601H459.136V282.503Z" fill="#808080"/>
<path d="M938.206 282.503H951.43V601H938.206V282.503Z" fill="#808080"/>
</svg>
