<svg width="191" height="84" viewBox="0 0 191 84" fill="none" xmlns="http://www.w3.org/2000/svg">
<path fill-rule="evenodd" clip-rule="evenodd" d="M66.3735 30.4501L71.652 15.9471L76.9305 30.4501H66.3735Z" fill="#FF002C"/>
<path fill-rule="evenodd" clip-rule="evenodd" d="M55.5315 60.2379H87.7728L82.0441 44.498H61.2602L55.5315 60.2379Z" fill="#FF002C"/>
<path fill-rule="evenodd" clip-rule="evenodd" d="M135.069 -3.05176e-05H82.2926L104.218 60.2379H107.18V16.7977H135.069V-3.05176e-05Z" fill="#FF002C"/>
<path d="M9.051 81.4008H3.43378L2.47669 83.7217H0.122192L5.1921 71.5211H7.30501L12.3748 83.7217H10.0112L9.051 81.4008ZM4.22268 79.4805H8.25594L6.32032 74.7746L6.24694 74.4627H6.23784L6.16754 74.7746L4.22268 79.4805Z" fill="#FF002C"/>
<path d="M33.1878 74.5115L29.2616 83.7217H27.2924L23.3876 74.5115H25.7145L28.2679 80.8321H28.2862L30.8394 74.5115H33.1878Z" fill="#FF002C"/>
<path d="M51.5788 76.4104L50.4932 76.4197C50.0682 76.4197 49.686 76.4807 49.3467 76.6031C49.0072 76.7254 48.7167 76.9089 48.4721 77.1505C48.2305 77.392 48.047 77.6948 47.9186 78.0556C47.7902 78.4164 47.726 78.8323 47.726 79.3062V83.7217H45.5488V74.5024H47.3132L47.509 75.6063C47.8208 75.2882 48.2121 75.0254 48.6891 74.8174C49.1632 74.6094 49.7258 74.5024 50.3772 74.5024H51.5788V76.4104Z" fill="#FF002C"/>
<path d="M63.9674 74.5024H66.163V83.7217H63.9674V74.5024ZM63.7258 71.8911C63.7258 71.726 63.7565 71.5699 63.8237 71.4232C63.8879 71.2764 63.9796 71.148 64.0958 71.0379C64.2121 70.9278 64.3558 70.8422 64.5209 70.775C64.6891 70.7107 64.8756 70.6771 65.0775 70.6771C65.2793 70.6771 65.4687 70.7107 65.6369 70.775C65.8082 70.8422 65.9519 70.9278 66.0712 71.0379C66.1904 71.148 66.2852 71.2764 66.3495 71.4232C66.4167 71.5699 66.4473 71.726 66.4473 71.8911C66.4473 72.0593 66.4167 72.2151 66.3495 72.3619C66.2852 72.5087 66.1904 72.6371 66.0712 72.7472C65.9519 72.8573 65.8082 72.943 65.6369 73.004C65.4687 73.0683 65.2793 73.0988 65.0775 73.0988C64.8756 73.0988 64.6922 73.0683 64.5271 73.004C64.3619 72.943 64.2212 72.8573 64.102 72.7472C63.9827 72.6371 63.8879 72.5087 63.8237 72.3619C63.7565 72.2151 63.7258 72.0593 63.7258 71.8911Z" fill="#FF002C"/>
<path d="M89.0307 83.7217H86.8352V78.7987C86.8352 78.3093 86.7832 77.8936 86.6731 77.551C86.5661 77.2117 86.4132 76.9334 86.2176 76.7163C86.0218 76.5022 85.7802 76.3463 85.4959 76.2515C85.2114 76.1567 84.8935 76.1078 84.5419 76.1078C84.1595 76.1078 83.808 76.1781 83.49 76.3187C83.1688 76.4595 82.8936 76.6551 82.6613 76.9089C82.429 77.1657 82.2484 77.4654 82.12 77.8171C81.9916 78.1657 81.9274 78.5509 81.9274 78.9698V83.7217H79.7502V74.4962H81.5238L81.6859 75.4259C81.8755 75.2608 82.0895 75.1017 82.3311 74.958C82.5696 74.8112 82.8233 74.6828 83.0954 74.5727C83.3676 74.4626 83.652 74.374 83.9517 74.3128C84.2483 74.2486 84.551 74.218 84.8568 74.218C85.5724 74.218 86.193 74.3189 86.7189 74.5177C87.245 74.7195 87.6791 75.0099 88.0217 75.3983C88.3672 75.7836 88.6209 76.2576 88.783 76.8233C88.9481 77.3859 89.0307 78.0311 89.0307 78.7558V83.7217Z" fill="#FF002C"/>
<path d="M101.74 82.731C101.74 82.5628 101.771 82.4068 101.832 82.26C101.89 82.1132 101.976 81.9819 102.092 81.8687C102.205 81.7555 102.34 81.6669 102.493 81.5995C102.648 81.5354 102.823 81.5018 103.012 81.5018C103.205 81.5018 103.376 81.5354 103.532 81.5995C103.688 81.6669 103.823 81.7555 103.936 81.8687C104.049 81.9819 104.135 82.1132 104.196 82.26C104.257 82.4068 104.284 82.5628 104.284 82.731C104.284 82.8992 104.257 83.055 104.196 83.2018C104.135 83.3486 104.049 83.477 103.936 83.5871C103.823 83.6972 103.688 83.786 103.532 83.847C103.376 83.9113 103.205 83.9418 103.012 83.9418C102.823 83.9418 102.648 83.9082 102.493 83.8439C102.34 83.7767 102.205 83.6881 102.092 83.578C101.976 83.4679 101.89 83.3395 101.832 83.1927C101.771 83.0459 101.74 82.893 101.74 82.731Z" fill="#FF002C"/>
<path d="M119.978 73.4658H116.358V71.5394H125.846V73.4658H122.217V83.7217H119.978V73.4658Z" fill="#FF002C"/>
<path d="M136.098 79.1166C136.098 78.4409 136.223 77.8079 136.474 77.2148C136.724 76.6184 137.076 76.1016 137.526 75.6583C137.978 75.2179 138.513 74.8663 139.134 74.6094C139.755 74.3557 140.434 74.2272 141.167 74.2272C141.907 74.2272 142.589 74.3557 143.213 74.6094C143.84 74.8663 144.375 75.2179 144.828 75.6583C145.277 76.1016 145.632 76.6184 145.886 77.2148C146.139 77.8079 146.265 78.4409 146.265 79.1166C146.265 79.2665 146.259 79.3858 146.246 79.4744C146.234 79.5662 146.222 79.6517 146.21 79.7344H138.238C138.308 80.1104 138.44 80.453 138.626 80.7556C138.816 81.0615 139.042 81.3183 139.308 81.5323C139.574 81.7434 139.868 81.9085 140.192 82.0246C140.513 82.1408 140.846 82.199 141.186 82.199C141.724 82.199 142.198 82.0796 142.611 81.8411C143.024 81.6026 143.335 81.2876 143.549 80.8993H145.907C145.757 81.306 145.54 81.6943 145.253 82.0674C144.965 82.4405 144.62 82.7708 144.219 83.0581C143.815 83.3455 143.357 83.5749 142.846 83.7431C142.335 83.9144 141.776 84 141.167 84C140.434 84 139.755 83.8715 139.134 83.6147C138.513 83.3578 137.978 83.0093 137.526 82.5659C137.076 82.1256 136.724 81.6088 136.474 81.0155C136.223 80.4254 136.098 79.7925 136.098 79.1166ZM141.186 75.9732C140.816 75.9732 140.473 76.0283 140.158 76.1383C139.846 76.2484 139.565 76.4014 139.317 76.6001C139.07 76.7957 138.859 77.0313 138.688 77.3034C138.513 77.5755 138.385 77.8721 138.302 78.1931H143.971C143.889 77.8721 143.764 77.5755 143.595 77.3034C143.427 77.0313 143.225 76.7957 142.987 76.6001C142.748 76.4014 142.476 76.2484 142.176 76.1383C141.874 76.0283 141.543 75.9732 141.186 75.9732Z" fill="#FF002C"/>
<path d="M160.705 79.1106C160.705 79.5783 160.785 79.9943 160.944 80.3641C161.1 80.7341 161.314 81.0491 161.583 81.306C161.852 81.5659 162.161 81.7646 162.509 81.9023C162.861 82.0398 163.225 82.1072 163.607 82.1072C164.176 82.1072 164.687 81.9695 165.139 81.6912C165.595 81.413 165.943 81.0248 166.188 80.5293H168.417C168.279 81.0308 168.065 81.4925 167.772 81.9145C167.481 82.3364 167.127 82.7003 166.711 83.0123C166.298 83.3211 165.827 83.5627 165.301 83.7369C164.775 83.9113 164.207 83.9969 163.598 83.9969C162.864 83.9969 162.185 83.8684 161.565 83.6116C160.944 83.3547 160.409 83.0062 159.956 82.5628C159.507 82.1225 159.155 81.6057 158.901 81.0155C158.647 80.4223 158.519 79.7925 158.519 79.1166C158.519 78.4409 158.644 77.8078 158.895 77.2147C159.146 76.6184 159.498 76.0985 159.947 75.6551C160.4 75.2117 160.935 74.8602 161.555 74.6034C162.176 74.3464 162.858 74.218 163.598 74.218C164.207 74.218 164.772 74.3037 165.295 74.4779C165.818 74.6523 166.289 74.8938 166.702 75.2026C167.118 75.5115 167.472 75.8784 167.766 76.3034C168.056 76.7285 168.273 77.1933 168.417 77.6948H166.188C165.949 77.2024 165.601 76.8202 165.145 76.5419C164.687 76.2637 164.176 76.1261 163.607 76.1261C163.219 76.1261 162.852 76.1933 162.5 76.331C162.152 76.4685 161.843 76.6673 161.58 76.9272C161.314 77.1841 161.1 77.499 160.944 77.869C160.785 78.239 160.705 78.6519 160.705 79.1106Z" fill="#FF002C"/>
<path d="M190.456 83.7217H188.26V78.7527C188.26 78.2512 188.209 77.8324 188.098 77.4929C187.991 77.1566 187.835 76.8845 187.631 76.6765C187.423 76.4716 187.172 76.3249 186.878 76.2393C186.582 76.1505 186.242 76.1078 185.86 76.1078C185.509 76.1078 185.178 76.1688 184.869 76.2943C184.564 76.4197 184.298 76.6001 184.074 76.8324C183.848 77.0649 183.674 77.3461 183.545 77.6703C183.417 77.9975 183.353 78.3553 183.353 78.7497V83.7217H181.176V71.0991H183.343L183.334 75.3372C183.692 75.0223 184.126 74.7562 184.634 74.5391C185.142 74.3251 185.689 74.218 186.282 74.218C186.998 74.218 187.618 74.3159 188.144 74.5146C188.67 74.7104 189.104 75.0008 189.447 75.383C189.792 75.7652 190.046 76.2362 190.208 76.7957C190.373 77.3553 190.456 77.9944 190.456 78.7191V83.7217Z" fill="#FF002C"/>
<path d="M10.8978 59.0482H179.566V60.2381H10.8978V59.0482Z" fill="#FF002C"/>
</svg>
