<svg width="48" height="48" viewBox="0 0 48 48" fill="none" xmlns="http://www.w3.org/2000/svg">
<g clip-path="url(#clip0)">
<path d="M46.8029 8.69121C46.3695 4.69396 43.1625 1.53636 39.1015 1.1101C28.9174 0.0401632 18.7035 0.0401632 8.51984 1.1101C4.45878 1.53672 1.25142 4.69396 0.818029 8.69121C-0.268892 18.7158 -0.268892 28.7704 0.818029 38.795C1.25142 42.7926 4.45878 45.9499 8.51947 46.3765C18.7032 47.4464 28.9174 47.4464 39.1015 46.3765C43.1625 45.9499 46.3695 42.7926 46.8029 38.795C47.8898 28.7704 47.8898 18.7162 46.8029 8.69121Z" fill="url(#paint0_radial)"/>
<path d="M44.2131 10.3866C43.8288 6.83956 40.9829 4.03777 37.3792 3.65907C28.3423 2.71 19.2786 2.71 10.2418 3.65907C6.63843 4.03777 3.79217 6.83956 3.40746 10.3866C2.44332 19.2822 2.44332 28.2043 3.40746 37.0996C3.79217 40.647 6.63843 43.4488 10.2418 43.8272C19.2786 44.7766 28.3423 44.7766 37.3788 43.8272C40.9825 43.4488 43.8288 40.647 44.2131 37.0996C45.1776 28.2043 45.1776 19.2822 44.2131 10.3866Z" fill="url(#paint1_linear)"/>
<path d="M0.716339 37.8234C0.749034 38.1474 0.782819 38.4714 0.818056 38.7954C1.25144 42.7926 4.45881 45.9499 8.51987 46.3765C18.7036 47.4464 28.9178 47.4464 39.1015 46.3765C43.1626 45.9499 46.3696 42.7926 46.803 38.7954C46.8382 38.4714 46.872 38.1474 46.905 37.8234H0.716339Z" fill="url(#paint2_linear)"/>
<path d="M46.8029 38.795C47.3871 33.4085 47.6566 28.0134 47.613 22.619L36.7293 11.9053C35.3695 10.3773 33.3835 9.42357 31.0498 9.34096C26.2506 9.17075 21.4361 9.17933 16.6361 9.34168C12.6495 9.47685 9.86176 12.1145 9.14683 15.9912C9.02077 16.6757 8.94521 17.3691 8.84604 18.0585V29.4238C8.90089 29.7921 8.98154 30.1586 9.00661 30.5291C9.16645 32.8871 10.1509 34.9068 11.7272 36.2732L22.8027 47.1754C28.2381 47.2129 33.6738 46.9468 39.1015 46.3765C43.1625 45.9499 46.3695 42.7926 46.8029 38.795Z" fill="url(#paint3_linear)"/>
<path d="M46.8029 38.7954C46.3699 42.7923 43.1618 45.9502 39.1015 46.3765C33.6745 46.9465 28.2377 47.2129 22.8031 47.1754L11.7443 36.2893C13.0263 37.3939 14.6974 38.0666 16.6365 38.1385C21.4354 38.3158 26.251 38.3112 31.0499 38.141C35.3903 37.9865 38.5312 34.8242 38.6667 30.5516C38.8112 26.0151 38.8112 21.4668 38.6667 16.9303C38.6049 14.9592 37.902 13.2249 36.7366 11.9125L47.6134 22.6194C47.6563 28.013 47.3867 33.4089 46.8029 38.7954Z" fill="url(#paint4_linear)"/>
<path d="M29.4289 18.6679C28.0346 17.1735 26.0341 16.2358 23.8105 16.2358C19.5987 16.2358 16.1839 19.5973 16.1839 23.7433C16.1839 25.9321 17.1364 27.9015 18.6545 29.2739L36.2999 46.6436C37.2339 46.5635 38.1679 46.4745 39.1011 46.3765C43.1622 45.9499 46.3695 42.7926 46.8029 38.795C46.9025 37.8763 46.9929 36.9569 47.0743 36.0376L29.4289 18.6679Z" fill="url(#paint5_linear)"/>
<path d="M47.5258 28.7922L33.3247 14.8133C32.9934 14.3853 32.4713 14.1074 31.8825 14.1074C30.8805 14.1074 30.0679 14.907 30.0679 15.8936C30.0679 16.4733 30.3502 16.9872 30.785 17.3133L47.2719 33.543C47.3838 31.9599 47.4684 30.3761 47.5258 28.7922Z" fill="url(#paint6_linear)"/>
<path d="M8.84604 18.0585C8.94521 17.3691 9.02077 16.6757 9.14683 15.9912C9.86139 12.1145 12.6495 9.47685 16.6361 9.34168C21.4361 9.17933 26.2506 9.17075 31.0498 9.34096C35.3888 9.49473 38.5311 12.6573 38.6666 16.9299C38.8108 21.4668 38.8108 26.0148 38.6666 30.5516C38.5311 34.8242 35.3899 37.9865 31.0502 38.1406C26.2509 38.3112 21.4354 38.3155 16.6365 38.1381C12.2968 37.9775 9.29686 34.8078 9.00661 30.5287C8.98154 30.1586 8.90089 29.7917 8.84604 29.4234C8.84604 25.635 8.84604 21.8466 8.84604 18.0585ZM23.8145 35.6084C26.0108 35.6084 28.2094 35.6732 30.4028 35.5934C33.842 35.4679 35.9573 33.4475 36.0376 30.0653C36.1371 25.851 36.1371 21.6309 36.0376 17.4163C35.9573 14.0348 33.8405 11.9672 30.4028 11.8953C26.0395 11.8045 21.6715 11.8052 17.3082 11.8953C13.8967 11.9657 11.7751 13.9915 11.6825 17.3358C11.5648 21.6034 11.5648 25.8785 11.6825 30.1461C11.7751 33.49 13.8967 35.469 17.3085 35.5934C19.4744 35.6728 21.6457 35.6084 23.8145 35.6084Z" fill="url(#paint7_linear)"/>
<path d="M8.84604 18.0585C8.94521 17.3691 9.02077 16.6757 9.14683 15.9912C9.86139 12.1145 12.6495 9.47685 16.6361 9.34168C21.4361 9.17933 26.2506 9.17075 31.0498 9.34096C35.3888 9.49473 38.5311 12.6573 38.6666 16.9299C38.8108 21.4668 38.8108 26.0148 38.6666 30.5516C38.5311 34.8242 35.3899 37.9865 31.0502 38.1406C26.2509 38.3112 21.4354 38.3155 16.6365 38.1381C12.2968 37.9775 9.29686 34.8078 9.00661 30.5287C8.98154 30.1586 8.90089 29.7917 8.84604 29.4234C8.84604 25.635 8.84604 21.8466 8.84604 18.0585ZM23.8145 35.6084C26.0108 35.6084 28.2094 35.6732 30.4028 35.5934C33.842 35.4679 35.9573 33.4475 36.0376 30.0653C36.1371 25.851 36.1371 21.6309 36.0376 17.4163C35.9573 14.0348 33.8405 11.9672 30.4028 11.8953C26.0395 11.8045 21.6715 11.8052 17.3082 11.8953C13.8967 11.9657 11.7751 13.9915 11.6825 17.3358C11.5648 21.6034 11.5648 25.8785 11.6825 30.1461C11.7751 33.49 13.8967 35.469 17.3085 35.5934C19.4744 35.6728 21.6457 35.6084 23.8145 35.6084Z" fill="white"/>
<path d="M23.8104 16.2362C19.5986 16.2362 16.1838 19.5973 16.1838 23.7433C16.1838 27.8897 19.5986 31.2507 23.8104 31.2507C28.0226 31.2507 31.4371 27.8897 31.4371 23.7433C31.4371 19.5973 28.0226 16.2362 23.8104 16.2362ZM23.8104 28.666C21.0485 28.666 18.8096 26.4621 18.8096 23.7433C18.8096 21.0245 21.0485 18.8206 23.8104 18.8206C26.5724 18.8206 28.8113 21.0245 28.8113 23.7433C28.8113 26.4621 26.5724 28.666 23.8104 28.666Z" fill="white"/>
<path d="M33.6966 15.8936C33.6966 16.8799 32.8844 17.6795 31.8824 17.6795C30.8805 17.6795 30.0679 16.8799 30.0679 15.8936C30.0679 14.907 30.8805 14.1074 31.8824 14.1074C32.8844 14.1074 33.6966 14.907 33.6966 15.8936Z" fill="white"/>
</g>
<defs>
<radialGradient id="paint0_radial" cx="0" cy="0" r="1" gradientUnits="userSpaceOnUse" gradientTransform="translate(9.7637 41.2694) scale(52.5113 51.6908)">
<stop stop-color="#FAE100"/>
<stop offset="0.0544" stop-color="#FADC04"/>
<stop offset="0.1167" stop-color="#FBCE0E"/>
<stop offset="0.1829" stop-color="#FCB720"/>
<stop offset="0.2514" stop-color="#FE9838"/>
<stop offset="0.3054" stop-color="#FF7950"/>
<stop offset="0.4922" stop-color="#FF1C74"/>
<stop offset="1" stop-color="#6C1CD1"/>
</radialGradient>
<linearGradient id="paint1_linear" x1="18.2652" y1="20.6728" x2="-61.785" y2="-25.0702" gradientUnits="userSpaceOnUse">
<stop stop-color="#A1B5D8" stop-opacity="0"/>
<stop offset="0.3094" stop-color="#90A2BD" stop-opacity="0.309804"/>
<stop offset="0.7554" stop-color="#7C8B9C" stop-opacity="0.756863"/>
<stop offset="1" stop-color="#748290"/>
</linearGradient>
<linearGradient id="paint2_linear" x1="23.8105" y1="41.6831" x2="23.8105" y2="48.9892" gradientUnits="userSpaceOnUse">
<stop stop-color="#FAE100" stop-opacity="0"/>
<stop offset="0.3068" stop-color="#FCA800" stop-opacity="0.305882"/>
<stop offset="0.6275" stop-color="#FE7300" stop-opacity="0.627451"/>
<stop offset="0.8685" stop-color="#FF5200" stop-opacity="0.866667"/>
<stop offset="1" stop-color="#FF4500"/>
</linearGradient>
<linearGradient id="paint3_linear" x1="21.1016" y1="21.0105" x2="9.50318" y2="9.22791" gradientUnits="userSpaceOnUse">
<stop stop-color="#833AB4" stop-opacity="0"/>
<stop offset="1" stop-color="#833AB4"/>
</linearGradient>
<linearGradient id="paint4_linear" x1="32.636" y1="43.1773" x2="26.9292" y2="15.8465" gradientUnits="userSpaceOnUse">
<stop stop-color="#833AB4" stop-opacity="0"/>
<stop offset="1" stop-color="#833AB4"/>
</linearGradient>
<linearGradient id="paint5_linear" x1="34.8741" y1="34.634" x2="11.6222" y2="11.013" gradientUnits="userSpaceOnUse">
<stop stop-color="#833AB4" stop-opacity="0"/>
<stop offset="1" stop-color="#833AB4"/>
</linearGradient>
<linearGradient id="paint6_linear" x1="36.6263" y1="20.5633" x2="28.9374" y2="12.7523" gradientUnits="userSpaceOnUse">
<stop stop-color="#833AB4" stop-opacity="0"/>
<stop offset="1" stop-color="#833AB4"/>
</linearGradient>
<linearGradient id="paint7_linear" x1="33.2645" y1="14.5017" x2="14.3064" y2="33.7608" gradientUnits="userSpaceOnUse">
<stop stop-color="#833AB4"/>
<stop offset="0.0922" stop-color="#9C3495"/>
<stop offset="0.2927" stop-color="#DC2546"/>
<stop offset="0.392" stop-color="#FD1D1D"/>
<stop offset="0.5589" stop-color="#FC6831"/>
<stop offset="0.6887" stop-color="#FC9B40"/>
<stop offset="0.7521" stop-color="#FCAF45"/>
<stop offset="0.7806" stop-color="#FDB750"/>
<stop offset="0.8656" stop-color="#FECB6A"/>
<stop offset="0.9415" stop-color="#FFD87A"/>
<stop offset="1" stop-color="#FFDC80"/>
</linearGradient>
<clipPath id="clip0">
<rect width="47.6153" height="46.8713" fill="white" transform="translate(0.00283813 0.307648)"/>
</clipPath>
</defs>
</svg>
