<svg width="76" height="63" viewBox="0 0 76 63" fill="none" xmlns="http://www.w3.org/2000/svg">
<path d="M19.3769 7.21928C19.3851 7.04477 19.4298 6.87391 19.5079 6.71766C19.5861 6.56141 19.696 6.4232 19.8307 6.31191C24.0407 2.82275 29.1978 0.67208 34.6394 0.136231C35.541 0.0465598 36.4579 0.00172452 37.3742 0.000940684C37.3809 0.000940684 37.3875 0 37.3943 0C37.401 0 37.4074 0.000940684 37.4142 0.000940684C38.3309 0.000940684 39.2476 0.0465598 40.1485 0.136231C44.2375 0.537523 48.1843 1.85094 51.6984 3.97974C55.2125 6.10855 58.2043 8.99851 60.4535 12.4368L60.463 12.4508C63.6958 17.3787 65.2661 23.212 64.944 29.0969C64.622 34.9817 62.4245 40.6089 58.6732 45.1546C58.562 45.2894 58.4239 45.3995 58.2676 45.4777C58.1114 45.556 57.9405 45.6008 57.766 45.6092C57.7461 45.6101 57.7263 45.6105 57.7064 45.6105C57.3739 45.6105 57.0549 45.4784 56.8197 45.2433L19.7423 8.16553C19.6188 8.04195 19.5226 7.89395 19.4596 7.731C19.3967 7.56805 19.3685 7.39376 19.3769 7.21928ZM41.4614 26.3369H49.1606C49.0541 23.1357 48.5314 19.962 47.6054 16.8957C44.6344 17.281 41.6439 17.4983 38.6484 17.5466V23.5238L41.4614 26.3369ZM62.4422 26.3369C62.2426 22.1878 61.0098 18.1544 58.8557 14.6027C55.9806 15.4101 53.0621 16.0542 50.1142 16.532C51.0439 19.7217 51.5666 23.0161 51.6698 26.3369H62.4422ZM39.4311 2.59152C39.1711 2.57051 38.9102 2.55217 38.6484 2.53931V15.0384C41.3671 14.9932 44.0815 14.8044 46.7802 14.4727C45.1171 10.0767 42.6218 6.04268 39.4311 2.59152ZM43.9695 28.8452L48.6959 33.5714C48.951 32.0075 49.1059 30.4288 49.1596 28.8452H43.9695ZM36.1401 17.5468C34.9382 17.5277 33.7353 17.481 32.5312 17.4068L36.1401 21.0156V17.5468ZM29.7948 14.6703C31.8938 14.8797 34.0208 15.0032 36.1401 15.038V2.53963C35.878 2.55248 35.6168 2.57098 35.3563 2.59183C32.4474 5.74258 30.1132 9.37878 28.4596 13.3354L29.7948 14.6703ZM43.2417 3.19335C45.8449 6.48266 47.8996 10.171 49.3263 14.1158C52.0334 13.6917 54.7159 13.1231 57.3623 12.4124C53.8685 7.79313 48.8761 4.53373 43.2417 3.19335ZM57.591 42.4667C60.5083 38.4996 62.1959 33.763 62.4442 28.8452H51.6698C51.5961 31.1567 51.3201 33.4573 50.845 35.7206L57.591 42.4667ZM26.5519 11.4268C27.8715 8.48645 29.5496 5.72062 31.5481 3.19225C28.2859 3.97018 25.2145 5.39923 22.5183 7.39361L26.5519 11.4268Z" fill="#1A73E8"/>
<path d="M14.3248 12.4519C14.8771 11.6119 15.4747 10.8027 16.1151 10.0278C16.2264 9.89308 16.3645 9.78311 16.5208 9.70492C16.677 9.62674 16.8479 9.58206 17.0224 9.57375C17.1969 9.56544 17.3712 9.59368 17.5342 9.65667C17.6971 9.71966 17.8452 9.816 17.9687 9.93952L55.0462 47.0165C55.1697 47.1401 55.2661 47.288 55.3291 47.451C55.3921 47.6139 55.4204 47.7883 55.4121 47.9628C55.4038 48.1373 55.3592 48.3081 55.281 48.4644C55.2029 48.6206 55.0929 48.7588 54.9582 48.8701C50.7482 52.3593 45.5911 54.51 40.1495 55.0458C38.3996 55.2183 36.6373 55.2261 34.8859 55.0692V61.4527C34.8859 61.705 34.8098 61.9515 34.6675 62.1598C34.5252 62.3682 34.3234 62.5288 34.0885 62.6207C33.8535 62.7125 33.5963 62.7314 33.3504 62.6748C33.1045 62.6182 32.8815 62.4887 32.7103 62.3033L21.4627 50.1185C15.6244 45.9884 11.6173 39.7532 10.2858 32.7268C8.95425 25.7004 10.4023 18.4315 14.3248 12.4517V12.4519ZM23.0141 48.1432C23.0874 48.1947 23.155 48.2538 23.2157 48.3196L32.3776 58.2451V53.6597C32.3776 53.48 32.4162 53.3024 32.4909 53.1389C32.5655 52.9754 32.6743 52.8299 32.8101 52.7122C32.9458 52.5944 33.1053 52.5072 33.2777 52.4565C33.4501 52.4058 33.6314 52.3927 33.8092 52.4181C34.1889 52.4725 34.5417 52.5154 34.888 52.5498C36.5549 52.7145 38.2341 52.7145 39.9011 52.5498C44.3784 52.1091 48.6528 50.4637 52.27 47.7884L17.1973 12.7154C16.9272 13.0812 16.6684 13.4526 16.4208 13.8297C12.8437 19.2841 11.5314 25.9173 12.7622 32.3229C13.9931 38.7285 17.6702 44.4029 23.0141 48.1432Z" fill="#FF002C"/>
<path d="M37.3942 42.6407C36.0089 42.6407 34.8859 41.5177 34.8859 40.1324C34.8859 38.7471 36.0089 37.6241 37.3942 37.6241C38.7795 37.6241 39.9025 38.7471 39.9025 40.1324C39.9025 41.5177 38.7795 42.6407 37.3942 42.6407Z" fill="#FF002C"/>
<path d="M29.8694 42.6407C28.4841 42.6407 27.3611 41.5177 27.3611 40.1324C27.3611 38.7471 28.4841 37.6241 29.8694 37.6241C31.2547 37.6241 32.3777 38.7471 32.3777 40.1324C32.3777 41.5177 31.2547 42.6407 29.8694 42.6407Z" fill="#FF002C"/>
<path d="M22.3445 42.6407C20.9592 42.6407 19.8362 41.5177 19.8362 40.1324C19.8362 38.7471 20.9592 37.6241 22.3445 37.6241C23.7298 37.6241 24.8528 38.7471 24.8528 40.1324C24.8528 41.5177 23.7298 42.6407 22.3445 42.6407Z" fill="#FF002C"/>
<path d="M64.9865 44.5316C65.3165 44.4904 65.6494 44.5819 65.912 44.7861C66.1745 44.9903 66.3452 45.2905 66.3864 45.6205L66.4924 46.467C70.966 40.164 73.0555 32.4768 72.3881 24.7764C71.7207 17.076 68.3398 9.86291 62.8485 4.42351C62.7308 4.30777 62.637 4.16992 62.5727 4.01787C62.5084 3.86583 62.4747 3.70257 62.4736 3.53748C62.4725 3.37239 62.504 3.2087 62.5663 3.05581C62.6286 2.90293 62.7205 2.76385 62.8367 2.64656C62.9529 2.52926 63.0911 2.43607 63.2434 2.37231C63.3957 2.30856 63.5591 2.2755 63.7242 2.27503C63.8893 2.27456 64.0528 2.3067 64.2055 2.36959C64.3581 2.43249 64.4968 2.5249 64.6137 2.64154C70.514 8.48567 74.1523 16.2318 74.8824 24.5043C75.6124 32.7768 73.3871 41.0404 68.6015 47.8276L69.6613 47.6709C69.8242 47.6467 69.9903 47.6549 70.15 47.695C70.3098 47.735 70.4601 47.8062 70.5924 47.9043C70.8595 48.1025 71.0369 48.3987 71.0857 48.7278C71.1344 49.0568 71.0504 49.3917 70.8522 49.6589C70.654 49.926 70.3578 50.1034 70.0287 50.1522L65.796 50.7792C65.6307 50.8037 65.4622 50.7949 65.3004 50.7533C65.1385 50.7118 64.9866 50.6383 64.8536 50.5372C64.7206 50.4361 64.6091 50.3095 64.5256 50.1647C64.4422 50.0199 64.3886 49.8599 64.3679 49.6941L63.8976 45.9317C63.8771 45.7682 63.8891 45.6024 63.9328 45.4436C63.9764 45.2848 64.0509 45.1361 64.152 45.0061C64.2532 44.8761 64.3789 44.7673 64.5221 44.6859C64.6652 44.6044 64.8231 44.552 64.9865 44.5316Z" fill="#1A73E8"/>
<path d="M6.27055 6.27073C5.93793 6.27073 5.61894 6.13859 5.38374 5.9034C5.14855 5.6682 5.01641 5.34921 5.01641 5.01659C5.01641 4.68397 5.14855 4.36498 5.38374 4.12978C5.61894 3.89458 5.93793 3.76245 6.27055 3.76245H10.033C10.3656 3.76245 10.6846 3.89458 10.9198 4.12978C11.155 4.36498 11.2871 4.68397 11.2871 5.01659V8.779C11.2871 9.11162 11.155 9.43061 10.9198 9.66581C10.6846 9.901 10.3656 10.0331 10.033 10.0331C9.70034 10.0331 9.38135 9.901 9.14615 9.66581C8.91096 9.43061 8.77883 9.11162 8.77883 8.779V8.36545C4.20961 14.6248 2.01908 22.3069 2.59989 30.0348C3.1807 37.7626 6.49486 45.031 11.9483 50.5371C12.1824 50.7734 12.313 51.093 12.3114 51.4256C12.3099 51.7583 12.1762 52.0766 11.9399 52.3107C11.7036 52.5448 11.3839 52.6754 11.0513 52.6738C10.7187 52.6722 10.4003 52.5386 10.1662 52.3023C4.2002 46.2786 0.614843 38.3 0.0720739 29.8393C-0.470695 21.3787 2.06577 13.0073 7.21319 6.27073H6.27055Z" fill="#FF002C"/>
</svg>
