<svg width="201" height="86" viewBox="0 0 201 86" fill="none" xmlns="http://www.w3.org/2000/svg">
<path d="M42.7334 58.375H44.9893V79H42.7334V58.375Z" fill="black"/>
<path d="M49.2666 71.5439C49.2666 70.4502 49.4619 69.4297 49.8525 68.4824C50.2529 67.5254 50.8047 66.6904 51.5078 65.9775C52.2207 65.2646 53.0654 64.7031 54.042 64.293C55.0186 63.8828 56.083 63.6777 57.2354 63.6777C57.9092 63.6777 58.5439 63.7559 59.1396 63.9121C59.7451 64.0684 60.3066 64.2783 60.8242 64.542C61.3418 64.8057 61.8105 65.1182 62.2305 65.4795C62.6602 65.8408 63.0312 66.2266 63.3438 66.6367L63.5049 64.0879H65.4678V79H63.5049L63.3291 76.4658C63.0166 76.876 62.6455 77.2617 62.2158 77.623C61.7959 77.9746 61.3223 78.2871 60.7949 78.5605C60.2773 78.8242 59.7158 79.0293 59.1104 79.1758C58.5146 79.332 57.8848 79.4102 57.2207 79.4102C56.0684 79.4102 55.0039 79.2051 54.0273 78.7949C53.0605 78.3848 52.2207 77.8281 51.5078 77.125C50.8047 76.4121 50.2529 75.5771 49.8525 74.6201C49.4619 73.6631 49.2666 72.6377 49.2666 71.5439ZM51.5225 71.5439C51.5225 72.3936 51.6738 73.1797 51.9766 73.9023C52.2891 74.6152 52.709 75.2354 53.2363 75.7627C53.7734 76.2803 54.3984 76.6904 55.1113 76.9932C55.834 77.2861 56.6006 77.4326 57.4111 77.4326C58.2314 77.4326 58.998 77.2861 59.7109 76.9932C60.4238 76.7002 61.0488 76.29 61.5859 75.7627C62.123 75.2354 62.543 74.6152 62.8457 73.9023C63.1582 73.1797 63.3145 72.3936 63.3145 71.5439C63.3145 70.7041 63.1582 69.9277 62.8457 69.2148C62.5332 68.4922 62.1084 67.8721 61.5713 67.3545C61.0439 66.8271 60.4189 66.417 59.6963 66.124C58.9834 65.8213 58.2217 65.6699 57.4111 65.6699C56.5908 65.6699 55.8193 65.8213 55.0967 66.124C54.3838 66.417 53.7637 66.8271 53.2363 67.3545C52.709 67.8721 52.2891 68.4922 51.9766 69.2148C51.6738 69.9277 51.5225 70.7041 51.5225 71.5439Z" fill="black"/>
<path d="M85.3311 79H83.0605V70.9434C83.0605 70.0156 82.9531 69.2197 82.7383 68.5557C82.5332 67.8916 82.2256 67.3447 81.8154 66.915C81.4053 66.4854 80.9023 66.1729 80.3066 65.9775C79.7207 65.7725 79.0469 65.6699 78.2852 65.6699C77.5723 65.6699 76.9033 65.8018 76.2783 66.0654C75.6533 66.3193 75.1064 66.6855 74.6377 67.1641C74.1787 67.6328 73.8125 68.1992 73.5391 68.8633C73.2754 69.5176 73.1436 70.2451 73.1436 71.0459V79H70.8877V64.0879H72.7627L72.9678 66.2852C73.2607 65.9238 73.6074 65.5869 74.0078 65.2744C74.418 64.9521 74.8623 64.6738 75.3408 64.4395C75.8193 64.2051 76.332 64.0195 76.8789 63.8828C77.4258 63.7461 77.9873 63.6777 78.5635 63.6777C80.8291 63.6777 82.5234 64.2832 83.6465 65.4941C84.7695 66.7051 85.3311 68.5117 85.3311 70.9141V79Z" fill="black"/>
<path d="M88.9346 71.5439C88.9346 70.4502 89.1299 69.4297 89.5205 68.4824C89.9209 67.5254 90.4727 66.6904 91.1758 65.9775C91.8887 65.2646 92.7334 64.7031 93.71 64.293C94.6865 63.8828 95.751 63.6777 96.9033 63.6777C97.5771 63.6777 98.2168 63.7559 98.8223 63.9121C99.4375 64.0684 100.004 64.2832 100.521 64.5566C101.049 64.8301 101.522 65.1523 101.942 65.5234C102.362 65.8848 102.729 66.2705 103.041 66.6807L103.261 64.0879H105.136V77.2275C105.136 77.8428 105.077 78.4629 104.96 79.0879C104.853 79.7227 104.672 80.333 104.418 80.9189C104.174 81.5049 103.852 82.0566 103.451 82.5742C103.051 83.0918 102.562 83.541 101.986 83.9219C101.41 84.3027 100.741 84.6006 99.9795 84.8154C99.2178 85.04 98.3486 85.1523 97.3721 85.1523C96.542 85.1523 95.7852 85.0742 95.1016 84.918C94.418 84.7617 93.7979 84.5469 93.2412 84.2734C92.6943 84.0098 92.2109 83.6973 91.791 83.3359C91.3711 82.9746 91.0098 82.5889 90.707 82.1787C90.4141 81.7686 90.1797 81.3389 90.0039 80.8896C89.8281 80.4502 89.7061 80.0107 89.6377 79.5713H91.8057C91.9326 80.0205 92.1377 80.4648 92.4209 80.9043C92.7139 81.3438 93.0898 81.7344 93.5488 82.0762C94.0078 82.418 94.5547 82.6963 95.1895 82.9111C95.8242 83.126 96.5469 83.2334 97.3574 83.2334C98.1387 83.2334 98.8174 83.1357 99.3936 82.9404C99.9795 82.7549 100.478 82.5059 100.888 82.1934C101.308 81.8809 101.649 81.5195 101.913 81.1094C102.177 80.709 102.382 80.2939 102.528 79.8643C102.675 79.4346 102.777 79.0098 102.836 78.5898C102.895 78.1602 102.924 77.7695 102.924 77.418V76.3193C102.602 76.7295 102.226 77.1152 101.796 77.4766C101.366 77.8379 100.888 78.1553 100.36 78.4287C99.833 78.6924 99.2617 78.9023 98.6465 79.0586C98.041 79.2148 97.3965 79.293 96.7129 79.293C95.6094 79.293 94.5791 79.0977 93.6221 78.707C92.6748 78.3066 91.8545 77.7598 91.1611 77.0664C90.4678 76.3633 89.9209 75.543 89.5205 74.6055C89.1299 73.6582 88.9346 72.6377 88.9346 71.5439ZM91.1904 71.5439C91.1904 72.3936 91.3418 73.1797 91.6445 73.9023C91.957 74.6152 92.3818 75.2354 92.9189 75.7627C93.4561 76.2803 94.0811 76.6904 94.7939 76.9932C95.5068 77.2861 96.2734 77.4326 97.0938 77.4326C97.9043 77.4326 98.666 77.2861 99.3789 76.9932C100.102 76.7002 100.727 76.29 101.254 75.7627C101.791 75.2354 102.211 74.6152 102.514 73.9023C102.826 73.1797 102.982 72.3936 102.982 71.5439C102.982 70.7041 102.826 69.9277 102.514 69.2148C102.201 68.4922 101.776 67.8721 101.239 67.3545C100.712 66.8271 100.087 66.417 99.3643 66.124C98.6514 65.8213 97.8896 65.6699 97.0791 65.6699C96.2588 65.6699 95.4873 65.8213 94.7646 66.124C94.0518 66.417 93.4316 66.8271 92.9043 67.3545C92.377 67.8721 91.957 68.4922 91.6445 69.2148C91.3418 69.9277 91.1904 70.7041 91.1904 71.5439Z" fill="black"/>
<path d="M117.147 77.418C118.72 77.418 119.926 76.9688 120.766 76.0703C121.605 75.1719 122.025 73.7803 122.025 71.8955V64.0879H124.296V71.9688C124.296 73.2383 124.13 74.3418 123.798 75.2793C123.466 76.207 122.987 76.9785 122.362 77.5938C121.747 78.209 120.995 78.668 120.106 78.9707C119.228 79.2637 118.241 79.4102 117.147 79.4102C116.054 79.4102 115.062 79.2637 114.174 78.9707C113.295 78.668 112.543 78.209 111.918 77.5938C111.303 76.9785 110.829 76.207 110.497 75.2793C110.165 74.3418 109.999 73.2383 109.999 71.9688V64.0879H112.27V71.8955C112.27 73.7607 112.68 75.1475 113.5 76.0557C114.33 76.9639 115.546 77.418 117.147 77.418Z" fill="black"/>
<path d="M128.017 71.5439C128.017 70.4502 128.212 69.4297 128.603 68.4824C129.003 67.5254 129.555 66.6904 130.258 65.9775C130.971 65.2646 131.815 64.7031 132.792 64.293C133.769 63.8828 134.833 63.6777 135.985 63.6777C136.659 63.6777 137.294 63.7559 137.89 63.9121C138.495 64.0684 139.057 64.2783 139.574 64.542C140.092 64.8057 140.561 65.1182 140.98 65.4795C141.41 65.8408 141.781 66.2266 142.094 66.6367L142.255 64.0879H144.218V79H142.255L142.079 76.4658C141.767 76.876 141.396 77.2617 140.966 77.623C140.546 77.9746 140.072 78.2871 139.545 78.5605C139.027 78.8242 138.466 79.0293 137.86 79.1758C137.265 79.332 136.635 79.4102 135.971 79.4102C134.818 79.4102 133.754 79.2051 132.777 78.7949C131.811 78.3848 130.971 77.8281 130.258 77.125C129.555 76.4121 129.003 75.5771 128.603 74.6201C128.212 73.6631 128.017 72.6377 128.017 71.5439ZM130.272 71.5439C130.272 72.3936 130.424 73.1797 130.727 73.9023C131.039 74.6152 131.459 75.2354 131.986 75.7627C132.523 76.2803 133.148 76.6904 133.861 76.9932C134.584 77.2861 135.351 77.4326 136.161 77.4326C136.981 77.4326 137.748 77.2861 138.461 76.9932C139.174 76.7002 139.799 76.29 140.336 75.7627C140.873 75.2354 141.293 74.6152 141.596 73.9023C141.908 73.1797 142.064 72.3936 142.064 71.5439C142.064 70.7041 141.908 69.9277 141.596 69.2148C141.283 68.4922 140.858 67.8721 140.321 67.3545C139.794 66.8271 139.169 66.417 138.446 66.124C137.733 65.8213 136.972 65.6699 136.161 65.6699C135.341 65.6699 134.569 65.8213 133.847 66.124C133.134 66.417 132.514 66.8271 131.986 67.3545C131.459 67.8721 131.039 68.4922 130.727 69.2148C130.424 69.9277 130.272 70.7041 130.272 71.5439Z" fill="black"/>
<path d="M148.554 71.5439C148.554 70.4502 148.749 69.4297 149.14 68.4824C149.54 67.5254 150.092 66.6904 150.795 65.9775C151.508 65.2646 152.353 64.7031 153.329 64.293C154.306 63.8828 155.37 63.6777 156.522 63.6777C157.196 63.6777 157.836 63.7559 158.441 63.9121C159.057 64.0684 159.623 64.2832 160.141 64.5566C160.668 64.8301 161.142 65.1523 161.562 65.5234C161.981 65.8848 162.348 66.2705 162.66 66.6807L162.88 64.0879H164.755V77.2275C164.755 77.8428 164.696 78.4629 164.579 79.0879C164.472 79.7227 164.291 80.333 164.037 80.9189C163.793 81.5049 163.471 82.0566 163.07 82.5742C162.67 83.0918 162.182 83.541 161.605 83.9219C161.029 84.3027 160.36 84.6006 159.599 84.8154C158.837 85.04 157.968 85.1523 156.991 85.1523C156.161 85.1523 155.404 85.0742 154.721 84.918C154.037 84.7617 153.417 84.5469 152.86 84.2734C152.313 84.0098 151.83 83.6973 151.41 83.3359C150.99 82.9746 150.629 82.5889 150.326 82.1787C150.033 81.7686 149.799 81.3389 149.623 80.8896C149.447 80.4502 149.325 80.0107 149.257 79.5713H151.425C151.552 80.0205 151.757 80.4648 152.04 80.9043C152.333 81.3438 152.709 81.7344 153.168 82.0762C153.627 82.418 154.174 82.6963 154.809 82.9111C155.443 83.126 156.166 83.2334 156.977 83.2334C157.758 83.2334 158.437 83.1357 159.013 82.9404C159.599 82.7549 160.097 82.5059 160.507 82.1934C160.927 81.8809 161.269 81.5195 161.532 81.1094C161.796 80.709 162.001 80.2939 162.147 79.8643C162.294 79.4346 162.396 79.0098 162.455 78.5898C162.514 78.1602 162.543 77.7695 162.543 77.418V76.3193C162.221 76.7295 161.845 77.1152 161.415 77.4766C160.985 77.8379 160.507 78.1553 159.979 78.4287C159.452 78.6924 158.881 78.9023 158.266 79.0586C157.66 79.2148 157.016 79.293 156.332 79.293C155.229 79.293 154.198 79.0977 153.241 78.707C152.294 78.3066 151.474 77.7598 150.78 77.0664C150.087 76.3633 149.54 75.543 149.14 74.6055C148.749 73.6582 148.554 72.6377 148.554 71.5439ZM150.81 71.5439C150.81 72.3936 150.961 73.1797 151.264 73.9023C151.576 74.6152 152.001 75.2354 152.538 75.7627C153.075 76.2803 153.7 76.6904 154.413 76.9932C155.126 77.2861 155.893 77.4326 156.713 77.4326C157.523 77.4326 158.285 77.2861 158.998 76.9932C159.721 76.7002 160.346 76.29 160.873 75.7627C161.41 75.2354 161.83 74.6152 162.133 73.9023C162.445 73.1797 162.602 72.3936 162.602 71.5439C162.602 70.7041 162.445 69.9277 162.133 69.2148C161.82 68.4922 161.396 67.8721 160.858 67.3545C160.331 66.8271 159.706 66.417 158.983 66.124C158.271 65.8213 157.509 65.6699 156.698 65.6699C155.878 65.6699 155.106 65.8213 154.384 66.124C153.671 66.417 153.051 66.8271 152.523 67.3545C151.996 67.8721 151.576 68.4922 151.264 69.2148C150.961 69.9277 150.81 70.7041 150.81 71.5439Z" fill="black"/>
<path d="M169.12 71.5439C169.12 70.4502 169.325 69.4297 169.735 68.4824C170.146 67.5254 170.712 66.6904 171.435 65.9775C172.167 65.2646 173.026 64.7031 174.013 64.293C174.999 63.8828 176.068 63.6777 177.221 63.6777C178.373 63.6777 179.442 63.8828 180.429 64.293C181.425 64.7031 182.284 65.2646 183.007 65.9775C183.729 66.6807 184.296 67.5107 184.706 68.4678C185.126 69.4248 185.336 70.4502 185.336 71.5439V71.8809H185.321L185.277 72.2471H171.332C171.42 73.0479 171.645 73.7754 172.006 74.4297C172.367 75.0742 172.816 75.626 173.354 76.085C173.891 76.5342 174.491 76.8857 175.155 77.1396C175.829 77.3838 176.522 77.5059 177.235 77.5059C177.782 77.5059 178.305 77.4424 178.803 77.3154C179.301 77.1787 179.76 76.9883 180.18 76.7441C180.609 76.5 180.995 76.207 181.337 75.8652C181.679 75.5137 181.967 75.1279 182.201 74.708H184.662C184.379 75.3623 183.998 75.9775 183.52 76.5537C183.051 77.1299 182.494 77.6328 181.85 78.0625C181.215 78.4824 180.507 78.8145 179.726 79.0586C178.944 79.3027 178.109 79.4248 177.221 79.4248C176.068 79.4248 174.999 79.2197 174.013 78.8096C173.026 78.3994 172.167 77.8379 171.435 77.125C170.712 76.4121 170.146 75.5771 169.735 74.6201C169.325 73.6631 169.12 72.6377 169.12 71.5439ZM177.235 65.5381C176.464 65.5381 175.746 65.665 175.082 65.9189C174.418 66.1729 173.827 66.5244 173.31 66.9736C172.802 67.4131 172.377 67.9404 172.035 68.5557C171.703 69.1709 171.483 69.8398 171.376 70.5625H183.021C182.914 69.8496 182.689 69.1855 182.348 68.5703C182.016 67.9551 181.596 67.4229 181.088 66.9736C180.59 66.5244 180.009 66.1729 179.345 65.9189C178.69 65.665 177.987 65.5381 177.235 65.5381Z" fill="black"/>
<path d="M190.199 74.7373C190.209 75.1084 190.316 75.46 190.521 75.792C190.736 76.124 191.02 76.417 191.371 76.6709C191.732 76.9248 192.147 77.1299 192.616 77.2861C193.095 77.4326 193.598 77.5059 194.125 77.5059C195.639 77.5059 196.767 77.2666 197.509 76.7881C198.261 76.2998 198.637 75.6553 198.637 74.8545C198.637 74.415 198.52 74.0488 198.285 73.7559C198.061 73.4629 197.743 73.2188 197.333 73.0234C196.923 72.8281 196.425 72.667 195.839 72.54C195.253 72.4131 194.599 72.2959 193.876 72.1885C193.3 72.1201 192.689 72.0225 192.045 71.8955C191.41 71.7588 190.824 71.5488 190.287 71.2656C189.76 70.9824 189.32 70.5967 188.969 70.1084C188.627 69.6201 188.456 68.9756 188.456 68.1748C188.456 67.5791 188.563 67.0127 188.778 66.4756C189.003 65.9287 189.359 65.4502 189.848 65.04C190.346 64.6201 190.99 64.2881 191.781 64.0439C192.572 63.7998 193.534 63.6777 194.667 63.6777C195.526 63.6777 196.298 63.79 196.981 64.0146C197.675 64.2295 198.266 64.5322 198.754 64.9229C199.242 65.3037 199.618 65.7578 199.882 66.2852C200.146 66.8125 200.277 67.3887 200.277 68.0137H198.021C198.002 67.6523 197.904 67.3203 197.729 67.0176C197.553 66.7148 197.309 66.4561 196.996 66.2412C196.693 66.0264 196.332 65.8604 195.912 65.7432C195.492 65.626 195.028 65.5674 194.521 65.5674C193.827 65.5674 193.236 65.6406 192.748 65.7871C192.26 65.9336 191.864 66.1289 191.562 66.373C191.259 66.6172 191.039 66.8955 190.902 67.208C190.766 67.5107 190.697 67.8232 190.697 68.1455C190.697 68.5264 190.79 68.8486 190.976 69.1123C191.161 69.3662 191.435 69.5859 191.796 69.7715C192.167 69.9473 192.626 70.0889 193.173 70.1963C193.72 70.3037 194.359 70.3916 195.092 70.46C195.521 70.5186 195.966 70.5869 196.425 70.665C196.884 70.7432 197.328 70.8506 197.758 70.9873C198.197 71.124 198.612 71.2949 199.003 71.5C199.394 71.6953 199.73 71.9443 200.014 72.2471C200.307 72.54 200.536 72.8916 200.702 73.3018C200.878 73.7021 200.966 74.1758 200.966 74.7227C200.966 75.4844 200.81 76.1582 200.497 76.7441C200.185 77.3203 199.73 77.8086 199.135 78.209C198.539 78.6094 197.812 78.9121 196.952 79.1172C196.103 79.3223 195.136 79.4248 194.052 79.4248C193.104 79.4248 192.255 79.2832 191.503 79C190.751 78.7266 190.116 78.3701 189.599 77.9307C189.081 77.4814 188.681 76.9785 188.397 76.4219C188.124 75.8555 187.987 75.2891 187.987 74.7227L190.199 74.7373Z" fill="black"/>
<path d="M19.3769 7.21928C19.3851 7.04477 19.4298 6.87391 19.5079 6.71766C19.5861 6.56141 19.696 6.4232 19.8307 6.31191C24.0407 2.82275 29.1978 0.67208 34.6394 0.136231C35.541 0.0465598 36.4579 0.00172452 37.3742 0.000940684C37.3809 0.000940684 37.3875 0 37.3943 0C37.401 0 37.4074 0.000940684 37.4142 0.000940684C38.3309 0.000940684 39.2476 0.0465598 40.1485 0.136231C44.2375 0.537523 48.1843 1.85094 51.6984 3.97974C55.2125 6.10855 58.2043 8.99851 60.4535 12.4368L60.463 12.4508C63.6958 17.3787 65.2661 23.212 64.944 29.0969C64.622 34.9817 62.4245 40.6089 58.6732 45.1546C58.562 45.2894 58.4239 45.3995 58.2676 45.4777C58.1114 45.556 57.9405 45.6008 57.766 45.6092C57.7461 45.6101 57.7263 45.6105 57.7064 45.6105C57.3739 45.6105 57.0549 45.4784 56.8197 45.2433L19.7423 8.16553C19.6188 8.04195 19.5226 7.89395 19.4596 7.731C19.3967 7.56805 19.3685 7.39376 19.3769 7.21928ZM41.4614 26.3369H49.1606C49.0541 23.1357 48.5314 19.962 47.6054 16.8957C44.6344 17.281 41.6439 17.4983 38.6484 17.5466V23.5238L41.4614 26.3369ZM62.4422 26.3369C62.2426 22.1878 61.0098 18.1544 58.8557 14.6027C55.9806 15.4101 53.0621 16.0542 50.1142 16.532C51.0439 19.7217 51.5666 23.0161 51.6698 26.3369H62.4422ZM39.4311 2.59152C39.1711 2.57051 38.9102 2.55217 38.6484 2.53931V15.0384C41.3671 14.9932 44.0815 14.8044 46.7802 14.4727C45.1171 10.0767 42.6218 6.04268 39.4311 2.59152ZM43.9695 28.8452L48.6959 33.5714C48.951 32.0075 49.1059 30.4288 49.1596 28.8452H43.9695ZM36.1401 17.5468C34.9382 17.5277 33.7353 17.481 32.5312 17.4068L36.1401 21.0156V17.5468ZM29.7948 14.6703C31.8938 14.8797 34.0208 15.0032 36.1401 15.038V2.53963C35.878 2.55248 35.6168 2.57098 35.3563 2.59183C32.4474 5.74258 30.1132 9.37878 28.4596 13.3354L29.7948 14.6703ZM43.2417 3.19335C45.8449 6.48266 47.8996 10.171 49.3263 14.1158C52.0334 13.6917 54.7159 13.1231 57.3623 12.4124C53.8685 7.79313 48.8761 4.53373 43.2417 3.19335ZM57.591 42.4667C60.5083 38.4996 62.1959 33.763 62.4442 28.8452H51.6698C51.5961 31.1567 51.3201 33.4573 50.845 35.7206L57.591 42.4667ZM26.5519 11.4268C27.8715 8.48645 29.5496 5.72062 31.5481 3.19225C28.2859 3.97018 25.2145 5.39923 22.5183 7.39361L26.5519 11.4268Z" fill="#1A73E8"/>
<path d="M14.3248 12.4519C14.8771 11.6119 15.4747 10.8027 16.1151 10.0278C16.2264 9.89308 16.3645 9.78311 16.5208 9.70492C16.677 9.62674 16.8479 9.58206 17.0224 9.57375C17.1969 9.56544 17.3712 9.59368 17.5342 9.65667C17.6971 9.71966 17.8452 9.816 17.9687 9.93952L55.0462 47.0165C55.1697 47.1401 55.2661 47.288 55.3291 47.451C55.3921 47.6139 55.4204 47.7883 55.4121 47.9628C55.4038 48.1373 55.3592 48.3081 55.281 48.4644C55.2029 48.6206 55.0929 48.7588 54.9582 48.8701C50.7482 52.3593 45.5911 54.51 40.1495 55.0458C38.3996 55.2183 36.6373 55.2261 34.8859 55.0692V61.4527C34.8859 61.705 34.8098 61.9515 34.6675 62.1598C34.5252 62.3682 34.3234 62.5288 34.0885 62.6207C33.8535 62.7125 33.5963 62.7314 33.3504 62.6748C33.1045 62.6182 32.8815 62.4887 32.7103 62.3033L21.4627 50.1185C15.6244 45.9884 11.6173 39.7532 10.2858 32.7268C8.95425 25.7004 10.4023 18.4315 14.3248 12.4517V12.4519ZM23.0141 48.1432C23.0874 48.1947 23.155 48.2538 23.2157 48.3196L32.3776 58.2451V53.6597C32.3776 53.48 32.4162 53.3024 32.4909 53.1389C32.5655 52.9754 32.6743 52.8299 32.8101 52.7122C32.9458 52.5944 33.1053 52.5072 33.2777 52.4565C33.4501 52.4058 33.6314 52.3927 33.8092 52.4181C34.1889 52.4725 34.5417 52.5154 34.888 52.5498C36.5549 52.7145 38.2341 52.7145 39.9011 52.5498C44.3784 52.1091 48.6528 50.4637 52.27 47.7884L17.1973 12.7154C16.9272 13.0812 16.6684 13.4526 16.4208 13.8297C12.8437 19.2841 11.5314 25.9173 12.7622 32.3229C13.9931 38.7285 17.6702 44.4029 23.0141 48.1432Z" fill="#FF002C"/>
<path d="M37.3942 42.6407C36.0089 42.6407 34.8859 41.5177 34.8859 40.1324C34.8859 38.7471 36.0089 37.6241 37.3942 37.6241C38.7795 37.6241 39.9025 38.7471 39.9025 40.1324C39.9025 41.5177 38.7795 42.6407 37.3942 42.6407Z" fill="#FF002C"/>
<path d="M29.8694 42.6407C28.4841 42.6407 27.3611 41.5177 27.3611 40.1324C27.3611 38.7471 28.4841 37.6241 29.8694 37.6241C31.2547 37.6241 32.3777 38.7471 32.3777 40.1324C32.3777 41.5177 31.2547 42.6407 29.8694 42.6407Z" fill="#FF002C"/>
<path d="M22.3445 42.6407C20.9592 42.6407 19.8362 41.5177 19.8362 40.1324C19.8362 38.7471 20.9592 37.6241 22.3445 37.6241C23.7298 37.6241 24.8528 38.7471 24.8528 40.1324C24.8528 41.5177 23.7298 42.6407 22.3445 42.6407Z" fill="#FF002C"/>
<path d="M64.9865 44.5316C65.3165 44.4904 65.6494 44.5819 65.912 44.7861C66.1745 44.9903 66.3452 45.2905 66.3864 45.6205L66.4924 46.467C70.966 40.164 73.0555 32.4768 72.3881 24.7764C71.7207 17.076 68.3398 9.86291 62.8485 4.42351C62.7308 4.30777 62.637 4.16992 62.5727 4.01787C62.5084 3.86583 62.4747 3.70257 62.4736 3.53748C62.4725 3.37239 62.504 3.2087 62.5663 3.05581C62.6286 2.90293 62.7205 2.76385 62.8367 2.64656C62.9529 2.52926 63.0911 2.43607 63.2434 2.37231C63.3957 2.30856 63.5591 2.2755 63.7242 2.27503C63.8893 2.27456 64.0528 2.3067 64.2055 2.36959C64.3581 2.43249 64.4968 2.5249 64.6137 2.64154C70.514 8.48567 74.1523 16.2318 74.8824 24.5043C75.6124 32.7768 73.3871 41.0404 68.6015 47.8276L69.6613 47.6709C69.8242 47.6467 69.9903 47.6549 70.15 47.695C70.3098 47.735 70.4601 47.8062 70.5924 47.9043C70.8595 48.1025 71.0369 48.3987 71.0857 48.7278C71.1344 49.0568 71.0504 49.3917 70.8522 49.6589C70.654 49.926 70.3578 50.1034 70.0287 50.1522L65.796 50.7792C65.6307 50.8037 65.4622 50.7949 65.3004 50.7533C65.1385 50.7118 64.9866 50.6383 64.8536 50.5372C64.7206 50.4361 64.6091 50.3095 64.5256 50.1647C64.4422 50.0199 64.3886 49.8599 64.3679 49.6941L63.8976 45.9317C63.8771 45.7682 63.8891 45.6024 63.9328 45.4436C63.9764 45.2848 64.0509 45.1361 64.152 45.0061C64.2532 44.8761 64.3789 44.7673 64.5221 44.6859C64.6652 44.6044 64.8231 44.552 64.9865 44.5316Z" fill="#1A73E8"/>
<path d="M6.27055 6.27073C5.93793 6.27073 5.61894 6.13859 5.38374 5.9034C5.14855 5.6682 5.01641 5.34921 5.01641 5.01659C5.01641 4.68397 5.14855 4.36498 5.38374 4.12978C5.61894 3.89458 5.93793 3.76245 6.27055 3.76245H10.033C10.3656 3.76245 10.6846 3.89458 10.9198 4.12978C11.155 4.36498 11.2871 4.68397 11.2871 5.01659V8.779C11.2871 9.11162 11.155 9.43061 10.9198 9.66581C10.6846 9.901 10.3656 10.0331 10.033 10.0331C9.70034 10.0331 9.38135 9.901 9.14615 9.66581C8.91096 9.43061 8.77883 9.11162 8.77883 8.779V8.36545C4.20961 14.6248 2.01908 22.3069 2.59989 30.0348C3.1807 37.7626 6.49486 45.031 11.9483 50.5371C12.1824 50.7734 12.313 51.093 12.3114 51.4256C12.3099 51.7583 12.1762 52.0766 11.9399 52.3107C11.7036 52.5448 11.3839 52.6754 11.0513 52.6738C10.7187 52.6722 10.4003 52.5386 10.1662 52.3023C4.2002 46.2786 0.614843 38.3 0.0720739 29.8393C-0.470695 21.3787 2.06577 13.0073 7.21319 6.27073H6.27055Z" fill="#FF002C"/>
</svg>
