<svg width="48" height="48" viewBox="0 0 48 48" fill="none" xmlns="http://www.w3.org/2000/svg">
<g clip-path="url(#clip0)">
<path d="M39.0521 46.3765C29.0275 47.4464 18.9725 47.4464 8.94793 46.3765C4.95068 45.9499 1.79343 42.7926 1.36681 38.795C0.296877 28.7704 0.296877 18.7158 1.36681 8.69121C1.79343 4.69396 4.95068 1.53672 8.94793 1.1101C18.9725 0.0401632 29.0271 0.0401632 39.0517 1.1101C43.0493 1.53672 46.2066 4.69396 46.6332 8.69121C47.7031 18.7158 47.7031 28.7704 46.6332 38.795C46.2066 42.7926 43.0497 45.9499 39.0521 46.3765Z" fill="url(#paint0_linear)"/>
<path d="M44.0839 10.3866C43.7055 6.83956 40.9041 4.03777 37.3567 3.65907C28.4611 2.71 19.5389 2.71 10.6433 3.65907C7.09627 4.03777 4.29448 6.83956 3.91578 10.3866C2.96671 19.2822 2.96671 28.2043 3.91578 37.0996C4.29448 40.647 7.09627 43.4488 10.6433 43.8272C19.5389 44.7766 28.4611 44.7766 37.3563 43.8272C40.9037 43.4488 43.7055 40.647 44.0839 37.0996C45.0333 28.2043 45.0333 19.2822 44.0839 10.3866Z" fill="url(#paint1_linear)"/>
<path d="M1.26669 37.8234C1.29888 38.1474 1.33213 38.4714 1.36682 38.7954C1.79344 42.7926 4.95068 45.9499 8.94829 46.3765C18.9729 47.4464 29.0275 47.4464 39.0521 46.3765C43.0497 45.9499 46.2066 42.7926 46.6332 38.7954C46.6679 38.4714 46.7011 38.1474 46.7337 37.8234H1.26669Z" fill="url(#paint2_linear)"/>
<path d="M46.1279 40.9145L15.8807 10.6669C15.2052 9.78546 14.1424 9.21652 12.9462 9.21652C10.9058 9.21652 9.25153 10.8704 9.25153 12.9109C9.25153 14.1074 9.82082 15.1702 10.7023 15.8453L40.8444 45.9878C43.2807 45.1771 45.2225 43.3051 46.1279 40.9145Z" fill="url(#paint3_linear)"/>
<path d="M16.0495 19.0291H9.84265V38.2701L18.6496 47.077C25.4519 47.3345 32.2588 47.1017 39.0517 46.3765C40.2393 46.2499 41.3518 45.8805 42.3417 45.3212L16.0495 19.0291Z" fill="url(#paint4_linear)"/>
<path d="M37.1286 20.6408C35.9932 19.396 34.3586 18.615 32.5416 18.615C29.6676 18.615 27.8127 19.6245 26.7088 20.5617L25.4926 19.0291H19.7735V38.2701L28.607 47.1035C32.0907 46.9901 35.573 46.7477 39.0521 46.3765C43.0497 45.9499 46.2066 42.7926 46.6332 38.7954C46.9186 36.1227 47.127 33.4478 47.2601 30.7723L37.1286 20.6408Z" fill="url(#paint5_linear)"/>
<path d="M9.84299 19.0291H16.0495V38.2701H9.84299V19.0291Z" fill="white"/>
<path d="M32.5416 18.615C27.9933 18.615 25.9954 21.1428 25.4926 21.9124V19.0291H19.7735V38.2701H25.9804V28.6052C25.9804 25.8124 27.266 23.6399 29.7044 23.6399C32.1425 23.6399 32.5416 26.3441 32.5416 29.6694V38.2701H38.7485V24.8218C38.7485 21.3939 35.9696 18.615 32.5416 18.615Z" fill="white"/>
<path d="M16.6406 12.9112C16.6406 14.9517 14.9867 16.6056 12.9462 16.6056C10.9058 16.6056 9.25153 14.9517 9.25153 12.9112C9.25153 10.8708 10.9058 9.21652 12.9462 9.21652C14.9867 9.21652 16.6406 10.8708 16.6406 12.9112Z" fill="white"/>
</g>
<defs>
<linearGradient id="paint0_linear" x1="16.1265" y1="6.89766" x2="27.9816" y2="32.262" gradientUnits="userSpaceOnUse">
<stop stop-color="#0077B5"/>
<stop offset="1" stop-color="#0066B2"/>
</linearGradient>
<linearGradient id="paint1_linear" x1="33.9128" y1="29.0609" x2="-34.1851" y2="-7.46934" gradientUnits="userSpaceOnUse">
<stop stop-color="#0066B2" stop-opacity="0"/>
<stop offset="1" stop-color="#07485E"/>
</linearGradient>
<linearGradient id="paint2_linear" x1="24" y1="38.3747" x2="24" y2="48.1708" gradientUnits="userSpaceOnUse">
<stop stop-color="#0066B2" stop-opacity="0"/>
<stop offset="1" stop-color="#07485E"/>
</linearGradient>
<linearGradient id="paint3_linear" x1="25.4056" y1="25.3706" x2="7.88039" y2="7.84532" gradientUnits="userSpaceOnUse">
<stop stop-color="#0066B2" stop-opacity="0"/>
<stop offset="1" stop-color="#07485E"/>
</linearGradient>
<linearGradient id="paint4_linear" x1="35.6949" y1="41.6524" x2="0.403565" y2="25.1096" gradientUnits="userSpaceOnUse">
<stop stop-color="#0066B2" stop-opacity="0"/>
<stop offset="1" stop-color="#07485E"/>
</linearGradient>
<linearGradient id="paint5_linear" x1="44.2801" y1="45.2798" x2="19.6946" y2="20.6942" gradientUnits="userSpaceOnUse">
<stop stop-color="#0066B2" stop-opacity="0"/>
<stop offset="1" stop-color="#07485E"/>
</linearGradient>
<clipPath id="clip0">
<rect width="46.8713" height="46.8713" fill="white" transform="translate(0.564362 0.307648)"/>
</clipPath>
</defs>
</svg>
