<svg width="34" height="34" viewBox="0 0 34 34" fill="none" xmlns="http://www.w3.org/2000/svg">
<path d="M26.6764 20.697C25.9911 19.9849 25.1648 19.604 24.2897 19.604C23.4208 19.604 22.5879 19.9778 21.8747 20.69L19.6428 22.9111C19.4592 22.8123 19.2756 22.7207 19.0995 22.6294C18.8454 22.5018 18.605 22.3828 18.4 22.2552C16.3101 20.93 14.4105 19.2018 12.5884 16.9665C11.7058 15.8521 11.1128 14.914 10.6817 13.9627C11.2605 13.4339 11.7976 12.8838 12.3201 12.3545C12.5184 12.1574 12.7153 11.9528 12.9136 11.7553C14.3963 10.2747 14.3963 8.35645 12.9136 6.87538L10.9855 4.95054C10.7669 4.73173 10.5407 4.50631 10.3291 4.28089C9.90508 3.84375 9.46022 3.39196 9.00164 2.96899C8.31636 2.29178 7.49715 1.93262 6.63583 1.93262C5.77402 1.93262 4.94062 2.29178 4.23452 2.96899L4.22032 2.98317L1.81902 5.40186C0.915098 6.30449 0.399249 7.4042 0.286613 8.68112C0.117188 10.7402 0.724376 12.6579 1.19053 13.9136C2.3344 16.9953 4.0438 19.8511 6.59276 22.912C9.68596 26.6001 13.4072 29.5126 17.6589 31.5646C19.2827 32.333 21.4511 33.2427 23.8733 33.3977C24.0223 33.4053 24.1776 33.4124 24.3186 33.4124C25.9499 33.4124 27.32 32.8273 28.3933 31.6634C28.4004 31.6492 28.4142 31.6426 28.4217 31.6284C28.789 31.1842 29.2125 30.782 29.6574 30.3519C29.9608 30.0627 30.2717 29.7598 30.575 29.4417C31.2745 28.7159 31.6413 27.8695 31.6413 27.0018C31.6413 26.1275 31.2669 25.2882 30.5537 24.5831L26.6768 20.6975L26.6764 20.697ZM29.2045 28.1223C29.1969 28.1223 29.1969 28.1299 29.2045 28.1223C28.9286 28.4191 28.6465 28.687 28.3427 28.9829C27.8836 29.42 27.4175 29.8784 26.9802 30.3935C26.2665 31.1553 25.4265 31.5145 24.3247 31.5145C24.2187 31.5145 24.1056 31.5145 24.0001 31.5074C21.9026 31.3737 19.9533 30.5556 18.4919 29.8571C14.4947 27.9252 10.9851 25.1814 8.06837 21.7055C5.66092 18.8072 4.05042 16.1276 2.98418 13.2505C2.3273 11.4944 2.08688 10.1263 2.19289 8.83565C2.26341 8.01052 2.58144 7.32622 3.16733 6.74116L5.57573 4.33618C5.92168 4.01199 6.28893 3.83524 6.64908 3.83524C7.09394 3.83524 7.45361 4.10367 7.67983 4.32909L7.70065 4.34989C8.13132 4.75205 8.54068 5.16793 8.97229 5.61216C9.19094 5.83805 9.41715 6.06348 9.6429 6.29646L11.5705 8.22177C12.3192 8.96892 12.3192 9.65984 11.5705 10.4075C11.3656 10.6121 11.1682 10.8167 10.9633 11.0138C10.3703 11.6206 9.80475 12.1849 9.19046 12.7349C9.17627 12.7491 9.16254 12.7557 9.15497 12.7699C8.54778 13.3767 8.66089 13.9689 8.78772 14.3706L8.80902 14.4339C9.31067 15.6465 10.0168 16.7892 11.0901 18.1503L11.0972 18.1574C13.0466 20.5548 15.1014 22.4239 17.3679 23.8553C17.6575 24.0387 17.9542 24.1866 18.2368 24.3274C18.4909 24.4546 18.7313 24.5741 18.9358 24.7013C18.9642 24.7159 18.9921 24.7362 19.021 24.7509C19.2609 24.8704 19.4866 24.9271 19.7195 24.9271C20.3058 24.9271 20.6726 24.5604 20.7928 24.4404L23.2079 22.0288C23.4483 21.7887 23.8297 21.5 24.2741 21.5C24.7119 21.5 25.0725 21.7745 25.2911 22.0146L29.196 25.9139C29.9238 26.6332 29.9238 27.3737 29.2035 28.1209L29.2045 28.1223Z" fill="#FF002C"/>
<path d="M18.3153 7.94795C20.1647 8.25844 21.8458 9.13272 23.1874 10.4725C24.5291 11.8123 25.398 13.4904 25.7156 15.3378C25.7932 15.8037 26.1955 16.1279 26.655 16.1279C26.7108 16.1279 26.7605 16.1204 26.8178 16.1137C27.3398 16.0287 27.6862 15.5358 27.6015 15.0131C27.2196 12.7778 26.1609 10.74 24.5433 9.12469C22.9262 7.50987 20.8855 6.45222 18.6465 6.07132C18.1245 5.98673 17.6371 6.33266 17.5453 6.8473C17.4535 7.36195 17.7923 7.86241 18.3153 7.94701V7.94795Z" fill="#FF002C"/>
<path d="M33.6537 14.7388C33.0252 11.0579 31.2874 7.70866 28.6182 5.04234C25.9495 2.37649 22.5946 0.642109 18.9084 0.0145174C18.393 -0.0771639 17.9056 0.275384 17.8138 0.790028C17.7286 1.31176 18.0745 1.799 18.5975 1.89068C21.8885 2.44785 24.8894 4.00596 27.277 6.38306C29.6637 8.7663 31.2174 11.7634 31.7758 15.0498C31.8534 15.5148 32.2557 15.8395 32.7147 15.8395C32.7711 15.8395 32.8208 15.8324 32.8771 15.8253C33.3929 15.7478 33.7464 15.2539 33.6542 14.7393L33.6537 14.7388Z" fill="#FF002C"/>
</svg>
