<svg width="48" height="49" viewBox="0 0 48 49" fill="none" xmlns="http://www.w3.org/2000/svg">
<g clip-path="url(#clip0)">
<path d="M39.4805 47.3637C29.2968 48.4506 19.0822 48.4506 8.89853 47.3637C4.83784 46.9303 1.63048 43.723 1.19709 39.6619C0.110167 29.4782 0.110167 19.264 1.19709 9.08027C1.63048 5.01957 4.83784 1.81221 8.89853 1.37882C19.0822 0.291899 29.2965 0.291899 39.4802 1.37882C43.5412 1.81221 46.7486 5.01957 47.182 9.08027C48.2689 19.264 48.2689 29.4782 47.182 39.6619C46.7486 43.723 43.5416 46.9303 39.4805 47.3637Z" fill="url(#paint0_linear)"/>
<path d="M44.5922 10.8026C44.2078 7.19922 41.3619 4.35296 37.7582 3.96825C28.7214 3.00411 19.6577 3.00411 10.6208 3.96825C7.01749 4.35296 4.17122 7.19922 3.78652 10.8026C2.82238 19.8394 2.82238 28.9031 3.78652 37.9396C4.17122 41.5433 7.01749 44.3896 10.6208 44.7739C19.6577 45.7384 28.7214 45.7384 37.7579 44.7739C41.3616 44.3896 44.2078 41.5433 44.5922 37.9396C45.5567 28.9031 45.5567 19.8394 44.5922 10.8026Z" fill="url(#paint1_linear)"/>
<path d="M1.0954 38.6749C1.12809 39.004 1.16188 39.3332 1.19712 39.6623C1.6305 43.723 4.83786 46.9303 8.89892 47.3637C19.0826 48.4506 29.2969 48.4506 39.4806 47.3637C43.5416 46.9303 46.7486 43.723 47.182 39.6623C47.2172 39.3332 47.251 39.004 47.2841 38.6749H1.0954Z" fill="url(#paint2_linear)"/>
<path d="M47.987 22.698L38.1034 12.8147C36.9957 13.4479 36.0196 13.7992 35.2843 13.9939C34.8709 14.1047 34.5335 14.165 34.2908 14.1981C33.1763 13.0556 31.62 12.3461 29.8973 12.3461C26.508 12.3461 23.7598 15.0939 23.7598 18.484C23.7598 18.6064 23.7631 18.7274 23.771 18.848C23.7874 19.1419 23.8248 19.4307 23.8826 19.7115C22.4676 19.6904 17.8685 19.3126 13.4824 15.5527C13.482 15.5527 13.482 15.5524 13.482 15.5524H13.4816L11.4131 13.4835C11.4131 13.4835 8.98645 17.7189 12.5542 20.9328C12.7108 21.1076 12.8829 21.2801 13.0715 21.4498C13.0864 21.4665 13.102 21.4828 13.1169 21.4996C12.6486 21.468 11.2402 21.3277 10.425 20.7519C10.425 20.7519 10.2612 23.3406 12.418 25.2464L14.1595 27.0028C13.6291 27.0468 13.0424 27.0362 12.6345 26.8575C12.6345 26.8575 12.9956 28.3909 14.3913 29.618L16.831 32.0705C15.3674 32.9231 12.8052 33.9901 9.43256 33.7176L24.2328 48.1789C29.3179 48.1774 34.403 47.9057 39.4805 47.3637C43.5416 46.9303 46.749 43.7229 47.1824 39.6623C47.785 34.0133 48.0528 28.3549 47.987 22.698Z" fill="url(#paint3_linear)"/>
<path d="M38.9469 15.1985C37.8934 15.7496 36.3066 16.0043 35.7806 16.0777C35.7762 16.0522 35.7719 16.0279 35.7675 16.0036C37.5559 14.8974 38.1034 12.8147 38.1034 12.8147C36.9957 13.4479 36.0196 13.7992 35.2843 13.9939C34.8709 14.1047 34.5335 14.1647 34.2908 14.1981C33.1763 13.0552 31.62 12.3461 29.8973 12.3461C26.508 12.3461 23.7598 15.0936 23.7598 18.484C23.7598 18.6061 23.7631 18.7274 23.771 18.8476C23.7874 19.1415 23.8248 19.4303 23.8826 19.7112C22.242 19.6868 16.3203 19.1837 11.4131 13.4835C11.4131 13.4835 8.68057 18.2511 13.2746 21.5079C13.2746 21.5079 11.4131 21.4498 10.425 20.7519C10.425 20.7519 10.1344 25.3459 15.4255 26.799C15.4255 26.799 13.5652 27.2647 12.6341 26.8575C12.6341 26.8575 13.5648 30.8114 18.2166 31.1028C18.2166 31.1028 14.8802 34.1572 9.43219 33.7176C12.1117 35.4141 15.2886 36.396 18.6946 36.396C28.2717 36.396 36.0356 28.6325 36.0356 19.0554C36.0356 18.9359 36.0345 18.8164 36.032 18.6969C36.0345 18.626 36.0356 18.5556 36.0356 18.484C36.0356 18.4342 36.0345 18.3845 36.0338 18.3347C37.8044 17.1548 38.9469 15.1985 38.9469 15.1985Z" fill="white"/>
</g>
<defs>
<linearGradient id="paint0_linear" x1="16.1911" y1="7.25825" x2="28.2344" y2="33.0252" gradientUnits="userSpaceOnUse">
<stop stop-color="#00C3FF"/>
<stop offset="1" stop-color="#00B0ED"/>
</linearGradient>
<linearGradient id="paint1_linear" x1="34.2597" y1="29.7733" x2="-34.9191" y2="-7.33681" gradientUnits="userSpaceOnUse">
<stop stop-color="#00B0ED" stop-opacity="0"/>
<stop offset="1" stop-color="#00A2CE"/>
</linearGradient>
<linearGradient id="paint2_linear" x1="24.1896" y1="41.2397" x2="24.1896" y2="47.4788" gradientUnits="userSpaceOnUse">
<stop stop-color="#00B0ED" stop-opacity="0"/>
<stop offset="1" stop-color="#00A2CE"/>
</linearGradient>
<linearGradient id="paint3_linear" x1="45.8974" y1="45.3957" x2="22.6359" y2="22.1342" gradientUnits="userSpaceOnUse">
<stop stop-color="#00B0ED" stop-opacity="0"/>
<stop offset="1" stop-color="#00A2CE"/>
</linearGradient>
<clipPath id="clip0">
<rect width="47.6153" height="47.6153" fill="white" transform="translate(0.381897 0.563629)"/>
</clipPath>
</defs>
</svg>
